<svg width="80" height="80" viewBox="0 0 80 80" fill="none" xmlns="http://www.w3.org/2000/svg">
<circle cx="40" cy="40" r="40" fill="#142477"/>
<rect x="8" y="8" width="64" height="64" rx="32" fill="black"/>
<path fill-rule="evenodd" clip-rule="evenodd" d="M40 72C57.6731 72 72 57.6731 72 40C72 22.3269 57.6731 8 40 8C22.3269 8 8 22.3269 8 40C8 57.6731 22.3269 72 40 72ZM40.1306 68.9959C56.1446 68.9959 69.1265 56.014 69.1265 40C69.1265 23.986 56.1446 11.0041 40.1306 11.0041C24.1166 11.0041 11.1347 23.986 11.1347 40C11.1347 56.014 24.1166 68.9959 40.1306 68.9959ZM40 66.7755C54.7877 66.7755 66.7755 54.7877 66.7755 40C66.7755 25.2123 54.7877 13.2245 40 13.2245C25.2123 13.2245 13.2245 25.2123 13.2245 40C13.2245 54.7877 25.2123 66.7755 40 66.7755ZM40.0653 63.5102C53.0856 63.5102 63.6408 52.955 63.6408 39.9347C63.6408 26.9144 53.0856 16.3592 40.0653 16.3592C27.045 16.3592 16.4898 26.9144 16.4898 39.9347C16.4898 52.955 27.045 63.5102 40.0653 63.5102ZM38.7348 20.8867L55.8025 50.496L57.6327 47.3208L42.3952 20.8867H38.7348ZM22.3673 47.2674L36.9753 21.9252L37.0055 21.9775L37.0342 21.9276L54.3455 51.9595H50.6851L46.3117 44.3725C44.3244 43.7443 42.2087 43.4055 40.0136 43.4055C38.8821 43.4055 37.7779 43.4845 36.7044 43.6421L38.8125 39.9907C39.2104 39.9713 39.6109 39.9615 40.0136 39.9615C41.3546 39.9615 42.6701 40.07 43.9521 40.2789L37.0041 28.2254L24.1976 50.4424L22.3673 47.2674ZM32.2984 46.8822L38.8625 35.4947L37.0324 32.3196L25.7114 51.9594H29.3718L29.4066 51.899C32.5461 50.0088 36.1486 49.0534 40.0824 49.0534C42.5943 49.0534 45.0026 49.4971 47.233 50.3105L44.7808 46.063C43.2329 45.7607 41.6596 45.6087 40.0824 45.6095C37.3602 45.6095 34.7423 46.0569 32.2984 46.8822Z" fill="url(#paint0_linear_5658_130986)"/>
<defs>
<linearGradient id="paint0_linear_5658_130986" x1="8" y1="8" x2="72" y2="72" gradientUnits="userSpaceOnUse">
<stop stop-color="#FF0F00"/>
<stop offset="1" stop-color="#7E4BDE"/>
</linearGradient>
</defs>
</svg>
