<?xml version="1.0" encoding="UTF-8"?>
<svg width="46px" height="46px" viewBox="0 0 46 46" version="1.1" xmlns="http://www.w3.org/2000/svg" xmlns:xlink="http://www.w3.org/1999/xlink">
    <title>oasis-network-rose-logo</title>
    <defs>
        <linearGradient x1="78.786448%" y1="94.1088503%" x2="20.3168708%" y2="4.51693007%" id="linearGradient-1">
            <stop stop-color="#645AFF" offset="0.76157%"></stop>
            <stop stop-color="#E40C5B" offset="50.38%"></stop>
            <stop stop-color="#FF4C3B" offset="100%"></stop>
        </linearGradient>
    </defs>
    <g id="Page-1" stroke="none" stroke-width="1" fill="none" fill-rule="evenodd">
        <g id="oasis-network-rose-logo">
            <circle id="Oval" fill="#142477" fill-rule="nonzero" cx="23" cy="23" r="23"></circle>
            <circle id="Oval" fill="#FFFFFF" fill-rule="nonzero" cx="23" cy="23" r="18.4"></circle>
            <g id="Clipped" transform="translate(4.000000, 4.000000)" fill="url(#linearGradient-1)">
                <path d="M19,38 C29.4931272,38 38,29.4931272 38,19 C38,8.50683524 29.4931272,0 19,0 C8.50683524,0 0,8.50683524 0,19 C0,29.4931272 8.50683524,38 19,38 Z M18.9999444,36 C28.389207,36 36,28.3885324 36,19.0004614 C36,9.61235341 28.389207,2 18.9999444,2 C9.61079298,2 2,9.6105744 2,18.9995719 C2,28.3885324 9.61079298,36 18.9999444,36 Z M19,35 C27.8367083,35 35,27.8367083 35,19 C35,10.1632539 27.8367083,3 19,3 C10.1632539,3 3,10.1632539 3,19 C3,27.8367083 10.1632539,35 19,35 Z M19.0000188,33 C26.7317164,33 33,26.7317164 33,19.0000188 C33,11.2682836 26.7317164,5 19.0000188,5 C11.2683211,5 5,11.2674201 5,19.0000188 C5,26.7325799 11.2674201,33 19.0000188,33 Z M18.8434832,21.4741754 C18.0808013,21.4741754 17.3400491,21.5376567 16.6227719,21.6586449 L17.7270196,19.7485997 C18.1000082,19.7242628 18.4729967,19.7120943 18.8434832,19.7120943 C19.7109199,19.7120943 20.5932216,19.7834191 21.4457931,19.9200577 L17.1582461,12.501658 L10.0203189,24.8504836 L9,23.0858002 L17.1416517,9 L17.1582461,9.02880847 L17.1740679,9.00087965 L27,26 L24.9602085,26 L22.6635527,22.0267042 C21.4667661,21.6664518 20.1878904,21.4741754 18.8434832,21.4741754 Z M27.9353376,25 L18,8 L20.1302855,8 L29,23.177176 L27.9353376,25 Z M18.8053103,16.7305894 L14.7441111,23.3542708 C16.1974826,22.9414268 17.9079143,22.7572061 19.5220105,22.7572061 C19.652817,22.7572061 19.783547,22.7588946 19.9143535,22.7614811 C20.8308406,22.7819222 21.7574281,22.8732422 22.6448386,23.029334 L24,25.2392635 C22.6129691,24.7641983 21.1115447,24.4844186 19.5220105,24.4844186 C17.1711665,24.4844186 15.0121133,25.0319434 13.1318513,25.9837981 L13.1618078,25.9335038 L13.1209475,26 L11,26 L17.7453148,15 L18.8053103,16.7305894 Z" id="Shape"></path>
            </g>
        </g>
    </g>
</svg>