<svg width="26" height="26" viewBox="0 0 26 26" fill="none" xmlns="http://www.w3.org/2000/svg">
<path d="M13.0002 25.6663C19.9296 25.6663 25.6668 19.9167 25.6668 12.9997C25.6668 6.07026 19.9172 0.333008 12.9877 0.333008C6.07075 0.333008 0.333496 6.07026 0.333496 12.9997C0.333496 19.9167 6.08317 25.6663 13.0002 25.6663ZM6.94003 13.0121C6.94003 12.3663 7.38709 11.9193 8.03284 11.9193H11.9198V8.03236C11.9198 7.3866 12.3544 6.92713 12.9877 6.92713C13.6335 6.92713 14.0806 7.3866 14.0806 8.03236V11.9193H17.9799C18.6132 11.9193 19.0727 12.3663 19.0727 13.0121C19.0727 13.6454 18.6132 14.0676 17.9799 14.0676H14.0806V17.967C14.0806 18.6127 13.6335 19.0598 12.9877 19.0598C12.3544 19.0598 11.9198 18.6003 11.9198 17.967V14.0676H8.03284C7.38709 14.0676 6.94003 13.6454 6.94003 13.0121Z" fill="#0085FF"/>
</svg>
