<svg viewBox="0 0 20 20" xmlns="http://www.w3.org/2000/svg"><path d="M12.4697.4696705c.2929-.29289.7677-.29289 1.0606 0l6 6c.2929.29289.2929.76777 0 1.06066l-6 5.99997c-.2929.2929-.7677.2929-1.0606 0-.2929-.2929-.2929-.7677 0-1.0606l4.7196-4.7196975H7c-2.89949 0-5.25 2.3504975-5.25 5.2499975S4.10051 18.250003 7 18.250003h3c.4142 0 .75.3357975.75.7499975 0 .4142-.3358.7500025-.75.7500025H7c-3.72792 0-6.75-3.0221025-6.75-6.7500025S3.27208 6.250003 7 6.250003h10.1893l-4.7196-4.7196725c-.2929-.29289-.2929-.76777 0-1.06066Z" fill-rule="evenodd"/></svg>