<svg width="24" height="24" viewBox="0 0 24 24" xmlns="http://www.w3.org/2000/svg">
<path fill-rule="evenodd" clip-rule="evenodd" d="M11.2536 2.80917C11.6658 2.39694 12.3342 2.39694 12.7464 2.80917L16.9686 7.03139C17.3808 7.44361 17.3808 8.11195 16.9686 8.52417C16.5564 8.93639 15.8881 8.93639 15.4758 8.52417L13.0556 6.10389L13.0556 16.2222C13.0556 16.8052 12.583 17.2778 12 17.2778C11.417 17.2778 10.9444 16.8052 10.9444 16.2222L10.9444 6.10389L8.52417 8.52417C8.11195 8.93639 7.44361 8.93639 7.03139 8.52417C6.61917 8.11195 6.61917 7.44361 7.03139 7.03139L11.2536 2.80917ZM3.55556 15.1667C4.13852 15.1667 4.61111 15.6393 4.61111 16.2222V18.3333C4.61111 18.9163 5.0837 19.3889 5.66667 19.3889H18.3333C18.9163 19.3889 19.3889 18.9163 19.3889 18.3333V16.2222C19.3889 15.6393 19.8615 15.1667 20.4444 15.1667C21.0274 15.1667 21.5 15.6393 21.5 16.2222V18.3333C21.5 20.0822 20.0822 21.5 18.3333 21.5H5.66667C3.91777 21.5 2.5 20.0822 2.5 18.3333V16.2222C2.5 15.6393 2.97259 15.1667 3.55556 15.1667Z"/>
</svg>
