<svg fill="none" height="20" viewBox="0 0 20 20" width="20" xmlns="http://www.w3.org/2000/svg" xmlns:xlink="http://www.w3.org/1999/xlink"><clipPath id="a"><path d="m0 0h20v20h-20z"/></clipPath><g clip-path="url(#a)"><path d="m4.82553.5c.11022 0 .21553.021004.31215.059228.10495.041418.2033.104557.28816.189418l3.23402 3.234014c.33153.33153.33153.86904 0 1.20057s-.86904.33153-1.20057 0l-1.78483-1.78483v10.8866c0 .4688-.38008.8489-.84893.8489s-.84893-.3801-.84893-.8489v-10.88654l-1.78477 1.78477c-.33153.33153-.86904.33153-1.200569 0-.331527-.33153-.331527-.86904 0-1.20057l3.229749-3.229748c.01435-.014551.02922-.028586.04458-.042076.06742-.059288.142-.106071.22072-.140351.1039-.045337.21862-.070485.33922-.070485z"/><path d="m15.1744 4.86596c.4689 0 .8489.38008.8489.84893v10.88671l1.7849-1.7848c.3315-.3316.869-.3316 1.2005 0 .3316.3315.3316.869 0 1.2005l-3.234 3.2341c-.3315.3315-.869.3315-1.2005 0l-3.2341-3.2341c-.3315-.3315-.3315-.869 0-1.2005.3316-.3316.8691-.3316 1.2006 0l1.7848 1.7847v-10.88661c0-.46885.3801-.84893.8489-.84893z"/></g></svg>