<svg height="24" viewBox="0 0 24 24" width="24" xmlns="http://www.w3.org/2000/svg"><path clip-rule="evenodd" d="m18.3752 13.7083c-.9434 3.5209-4.5624 5.6103-8.0833 4.6669-1.1628-.3116-2.16725-.9136-2.95891-1.7067l-.37385-.3738 2.91988-.0006c.49708 0 .89988-.4031.89988-.9001-.0001-.4971-.4031-.8999-.9002-.8999l-5.09212.001c-.2387 0-.46761.0949-.63636.2637s-.26353.3977-.26348.6364l.00107 5.0902c.0001.4971.40313.9.90019.8998.49705-.0001.89991-.4031.89981-.9001l-.00061-2.9168.37182.3718c1.00924 1.0111 2.29046 1.7781 3.76704 2.1738 4.48114 1.2007 9.08714-1.4586 10.28784-5.9397.1287-.4802-.1563-.9737-.6364-1.1023-.4801-.1287-.9736.1563-1.1023.6364zm1.4747-4.46687c.1688-.16882.2636-.39777.2636-.63649l-.0008-5.09034c-.0001-.49706-.4031-.89993-.9002-.89985-.497.00008-.8999.40309-.8998.90014l.0004 2.91705-.3717-.37178c-1.0092-1.0109-2.2907-1.77824-3.7672-2.17385-4.4811-1.20071-9.08713 1.45858-10.28784 5.93969-.12865.4801.15628.9736.63639 1.1023.48012.1286.97363-.1563 1.10228-.6364.94341-3.5209 4.56247-5.61034 8.08327-4.66693 1.1629.31159 2.1674.9136 2.9591 1.70678l.3733.37333h-2.9184c-.497 0-.9.40295-.9.9 0 .49706.403.9.9.9h5.0912c.2387 0 .4677-.09484.6364-.26365z" fill-rule="evenodd"/></svg>