<svg width="17" height="24" viewBox="0 0 17 24" fill="none" xmlns="http://www.w3.org/2000/svg">
<path opacity="0.66" d="M0.818246 24H2.61622H9.12458C13.4742 24 17 20.4552 17 16.0827C17 14.6029 16.5633 13.2297 15.8329 12.0274C15.0051 10.665 14.535 9.11399 14.535 7.5177C14.535 7.4213 14.5861 7.33213 14.6692 7.28405L15.5765 6.75748L16.3806 6.29089C16.4897 6.2274 16.4897 6.06891 16.3806 6.00566L15.5765 5.53907L14.6692 5.0125C14.5861 4.96441 14.535 4.87525 14.535 4.77885V3.27592C14.535 1.46675 13.076 0 11.2764 0C9.47679 0 8.0178 1.46675 8.0178 3.27592V5.15651C8.03126 6.46104 8.02569 7.92453 8.00038 9.36141C8.00038 9.36141 8.3122 11.0004 6.16898 14.1526C4.02553 17.3051 0.0903735 22.8052 0.0903735 22.8052C-0.187077 23.3516 0.207855 23.9998 0.818014 23.9998L0.818246 24ZM12.3918 4.54708C12.3918 5.16632 11.8924 5.66815 11.2766 5.66815C10.6607 5.66815 10.1615 5.16608 10.1615 4.54708C10.1615 3.92784 10.6609 3.426 11.2766 3.426C11.8926 3.426 12.3918 3.92807 12.3918 4.54708Z" fill="#C3C3E3"/>
</svg>
