<svg width="24" height="24" viewBox="0 0 24 24" xmlns="http://www.w3.org/2000/svg">
<path fill-rule="evenodd" clip-rule="evenodd" d="M12.8857 14.0477C13.3092 13.6242 13.9959 13.6242 14.4194 14.0477L17.784 17.4123L21.1486 14.0477C21.5722 13.6242 22.2588 13.6242 22.6824 14.0477C23.1059 14.4712 23.1059 15.1579 22.6824 15.5814L18.5509 19.7129C18.1274 20.1364 17.4407 20.1364 17.0172 19.7129L12.8857 15.5814C12.4622 15.1579 12.4622 14.4712 12.8857 14.0477Z"/>
<path fill-rule="evenodd" clip-rule="evenodd" d="M9.29626 7.26254C9.30837 7.13048 9.31455 6.99672 9.31455 6.8615C9.31455 6.24161 9.18453 5.65209 8.95028 5.11872C9.30674 5.07598 9.66958 5.05399 10.0376 5.05399C15.0289 5.05399 19.0751 9.10024 19.0751 14.0915V17.7066C19.0751 18.3055 18.5896 18.7911 17.9906 18.7911C17.3917 18.7911 16.9061 18.3055 16.9061 17.7066V14.0915C16.9061 10.2982 13.831 7.223 10.0376 7.223C9.7871 7.223 9.53978 7.23641 9.29626 7.26254ZM3.87348 11.058C3.1511 10.8687 2.50224 10.4978 1.97861 9.99695C1.35282 11.2262 1 12.6177 1 14.0915V17.7066C1 18.3055 1.48555 18.7911 2.08451 18.7911C2.68346 18.7911 3.16901 18.3055 3.16901 17.7066V14.0915C3.16901 13.0026 3.42242 11.9729 3.87348 11.058Z"/>
<path d="M7.86854 6.8615C7.86854 8.45872 6.57374 9.75352 4.97653 9.75352C3.37931 9.75352 2.08451 8.45872 2.08451 6.8615C2.08451 5.26428 3.37931 3.96948 4.97653 3.96948C6.57374 3.96948 7.86854 5.26428 7.86854 6.8615Z"/>
</svg>
