<svg width="24" height="24" viewBox="0 0 24 24" xmlns="http://www.w3.org/2000/svg">
<path d="M10.0376 4.51173C5.04625 4.51173 1 8.55799 1 13.5493V17.1643C1 17.7633 1.48555 18.2488 2.08451 18.2488C2.68346 18.2488 3.16901 17.7633 3.16901 17.1643V13.5493C3.16901 9.7559 6.24417 6.68075 10.0376 6.68075C13.831 6.68075 16.9061 9.7559 16.9061 13.5493V15.9921L14.4194 13.5054C13.9959 13.0819 13.3092 13.0819 12.8857 13.5054C12.4622 13.929 12.4622 14.6156 12.8857 15.0392L17.0172 19.1706C17.4407 19.5941 18.1274 19.5941 18.5509 19.1706L22.6824 15.0392C23.1059 14.6156 23.1059 13.929 22.6824 13.5054C22.2588 13.0819 21.5722 13.0819 21.1486 13.5054L19.0751 15.5789V13.5493C19.0751 8.55799 15.0289 4.51173 10.0376 4.51173Z"/>
</svg>
