<svg width="80" height="80" viewBox="0 0 80 80" fill="none" xmlns="http://www.w3.org/2000/svg">
<circle cx="40" cy="40" r="40" fill="#142477"/>
<circle cx="40" cy="40" r="32" fill="#2F2F2F"/>
<path d="M44.2087 47.3737C50.606 47.3737 55.7912 42.1885 55.7912 35.7912C55.7912 29.3939 50.606 24.2088 44.2087 24.2088C37.8114 24.2088 32.6262 29.3939 32.6262 35.7912C32.6262 42.1885 37.8114 47.3737 44.2087 47.3737ZM44.2087 51.5825C35.4882 51.5825 28.4175 44.5118 28.4175 35.7912C28.4175 27.0707 35.4882 20 44.2087 20C52.9293 20 60 27.0707 60 35.7912C60 44.5118 52.9293 51.5825 44.2087 51.5825Z" fill="#34D37F"/>
<path opacity="0.75" d="M35.7912 55.7912C42.1885 55.7912 47.3737 50.606 47.3737 44.2087C47.3737 37.8114 42.1885 32.6262 35.7912 32.6262C29.3939 32.6262 24.2088 37.8114 24.2088 44.2087C24.2088 50.606 29.3939 55.7912 35.7912 55.7912ZM35.7912 60C27.0707 60 20 52.9293 20 44.2087C20 35.4882 27.0707 28.4175 35.7912 28.4175C44.5118 28.4175 51.5825 35.4882 51.5825 44.2087C51.5825 52.9293 44.5118 60 35.7912 60Z" fill="#F6CD60"/>
</svg>
