<svg fill="black" height="24" viewBox="0 0 24 24" width="24" xmlns="http://www.w3.org/2000/svg"><path clip-rule="evenodd" d="m13.3906 3.81828c.1206-.48221-.1726-.97085-.6548-1.09141-.4822-.12055-.9709.17263-1.0914.65485l-.6857 2.74286c-.1206.48221.1726.97085.6548 1.09141.4822.12055.9709-.17264 1.0914-.65485zm-.1 4.88343c0-.49705.403-.9.9-.9h3.6206c1.1989 0 2.3488.47628 3.1965 1.32405.8478.84777 1.3241 1.99764 1.3241 3.19654s-.4763 2.3487-1.3241 3.1965c-.8477.8478-1.9976 1.3241-3.1965 1.3241h-2.5508c-.4971 0-.9-.403-.9-.9 0-.4971.4029-.9.9-.9h2.5508c.7216 0 1.4135-.2867 1.9237-.7969.5103-.5102.7969-1.2022.7969-1.9237 0-.7216-.2866-1.4135-.7969-1.9238-.5102-.51016-1.2021-.79679-1.9237-.79679h-3.6206c-.497 0-.9-.40294-.9-.9zm-5.43042 3.35449c.35147.3514.35147.9213 0 1.2728l-2.56327 2.5632-.00059.0006c-.50999.5124-.79632 1.2059-.79632 1.9289 0 .7226.28606 1.4159.79562 1.9282.51233.5095 1.20554.7956 1.92816.7956.72294 0 1.41644-.2863 1.92883-.7963l.00065-.0006 1.52094-1.521c.3515-.3515.9214-.3515 1.2728 0 .3515.3515.3515.9213 0 1.2728l-1.5222 1.5223-.0013.0013c-.84985.8463-2.00036 1.3215-3.19972 1.3215-1.19935 0-2.34986-.4752-3.19966-1.3215l.6351-.6377-.6377.6351c-.84634-.8498-1.32152-2.0003-1.32152-3.1997 0-1.1993.47518-2.3498 1.32152-3.1997l.0013-.0013 2.56457-2.5645c.35147-.3515.92132-.3515 1.27279 0zm-5.06195-4.7444c.22229-.44458.7629-.62479 1.20748-.4025l2.74285 1.37143c.44458.22229.62479.7629.4025 1.20748s-.7629.62479-1.20748.40249l-2.74286-1.37143c-.44458-.22229-.62478-.76289-.40249-1.20747zm5.03854-4.11429c-.22229-.44458-.7629-.62478-1.20748-.40249s-.62478.76289-.40249 1.20747l1.37143 2.74286c.22229.44458.76289.62478 1.20747.40249s.62479-.76289.4025-1.20748z" fill-rule="evenodd"/></svg>