<svg fill="black" height="24" viewBox="0 0 24 24" width="24" xmlns="http://www.w3.org/2000/svg"><path clip-rule="evenodd" d="m12 21.6c5.3019 0 9.6-4.2981 9.6-9.6 0-5.30193-4.2981-9.6-9.6-9.6-5.30194 0-9.60001 4.29807-9.60001 9.6 0 5.3019 4.29807 9.6 9.60001 9.6zm4.6279-11.77064c.2923-.40199.2034-.96487-.1986-1.25722-.4019-.29235-.9648-.20348-1.2572.19851l-4.1805 5.74815-2.25521-2.2552c-.35147-.3515-.92132-.3515-1.27279 0s-.35147.9213 0 1.2728l3 3c.1861.1861.4444.2814.7068.2608.2624-.0205.5026-.155.6575-.3678z" fill-rule="evenodd"/></svg>