<svg height="24" viewBox="0 0 24 24" width="24" xmlns="http://www.w3.org/2000/svg"><path clip-rule="evenodd" d="m9.375 3c-.20711 0-.375.16789-.375.375v12.75c0 .2071.16789.375.375.375h9.75c.2071 0 .375-.1679.375-.375v-4.5c0-1.4497-1.1753-2.625-2.625-2.625h-1.5c-1.0355 0-1.875-.83947-1.875-1.875v-1.5c0-1.44975-1.1753-2.625-2.625-2.625zm5.1319.66756c.3145.58241.4931 1.24907.4931 1.95744v1.5c0 .20711.1679.375.375.375h1.5c.7082 0 1.3748.17848 1.9571.49292-.8335-1.93754-2.3878-3.49204-4.3252-4.32536zm6.4931 12.45744c0 1.0355-.8395 1.875-1.875 1.875h-2.625v2.625c0 1.0355-.8395 1.875-1.875 1.875h-9.75c-1.03553 0-1.875-.8395-1.875-1.875v-12.75c0-1.03553.83947-1.875 1.875-1.875h1.875c.25224 0 .50236.00959.75.02845v-2.65345c0-1.03553.83947-1.875 1.875-1.875h1.875c.5528 0 1.0954.04608 1.6241.13477 4.6118.77373 8.1259 4.78337 8.1259 9.61523zm-13.5-8.59142c-.24687-.02222-.49703-.03358-.75-.03358h-1.875c-.20711 0-.375.16789-.375.375v12.75c0 .2071.16789.375.375.375h9.75c.2071 0 .375-.1679.375-.375v-2.625h-5.625c-1.03553 0-1.875-.8395-1.875-1.875z" fill-rule="evenodd"/></svg>