<svg fill="black" height="24" viewBox="0 0 24 24" width="24" xmlns="http://www.w3.org/2000/svg"><path clip-rule="evenodd" d="m5.625 3.15c-.12427 0-.225.10073-.225.225v17.25c0 .1243.10073.225.225.225h12.75c.1243 0 .225-.1007.225-.225v-9c0-1.3669-1.1081-2.475-2.475-2.475h-1.5c-1.1184 0-2.025-.90663-2.025-2.025v-1.5c0-1.36691-1.1081-2.475-2.475-2.475zm0-1.8c-1.11838 0-2.025.90662-2.025 2.025v17.25c0 1.1184.90662 2.025 2.025 2.025h12.75c1.1184 0 2.025-.9066 2.025-2.025v-9.375c0-5.46762-4.4324-9.9-9.9-9.9zm8.4461 2.62766c.2119.50699.3289 1.06349.3289 1.64734v1.5c0 .12426.1007.225.225.225h1.5c.5838 0 1.1403.11704 1.6473.32893-.7898-1.60551-2.0957-2.91139-3.7012-3.70127zm-6.7211 11.02234c0-.4971.40294-.9.9-.9h7.5c.4971 0 .9.4029.9.9s-.4029.9-.9.9h-7.5c-.49706 0-.9-.4029-.9-.9zm0 3c0-.4971.40294-.9.9-.9h3.75c.4971 0 .9.4029.9.9s-.4029.9-.9.9h-3.75c-.49706 0-.9-.4029-.9-.9z" fill-rule="evenodd"/></svg>