<svg viewBox="0 0 20 20" xmlns="http://www.w3.org/2000/svg"><path d="M10.0002.75001c5.1086076 0 9.25 4.14137898 9.25 9.24999 0 5.1085993-4.1414007 9.25001-9.25 9.25001-5.10862602 0-9.25-4.1413974-9.25-9.25001 0-5.10862432 4.14136568-9.24999 9.25-9.24999Zm0 1.4c-4.33543568 0-7.85 3.51456432-7.85 7.84999 0 4.335415 3.51457365 7.85 7.85 7.85 4.3354007 0 7.85-3.5145993 7.85-7.85 0-4.33541135-3.51459-7.84999-7.85-7.84999ZM10 4.8c.35438271 0 .64725823.26334362.69360983.60501415L10.7 5.5l-2e-8 3.25782403c.000138.54894648.19650982 1.07763709.55027642 1.49232342l.1236983.1338778 2.121 2.12100005c.2733671.273367.2733671.7165824 0 .9899494-.2460303.2460304-.6296378.2706334-.9031836.0738091l-.0867658-.0738091-2.12095605-2.120956c-.64049687-.64038298-1.02203177-1.49137372-1.07713354-2.39036498L9.3 8.758V5.5c0-.38659932.31340068-.7.7-.7Z" fill-rule="nonzero"/></svg>