<svg viewBox="0 0 17 20" xmlns="http://www.w3.org/2000/svg"><path d="M12.750195 16c0 .8619315-.3424306 1.6885851-.9518685 2.298023-.6094466.609574-1.4361028.951987-2.2981265.951987h-6c-.86202622 0-1.68867868-.3424072-2.29809957-.9519301C.5926093 17.6886015.250195 16.8619506.250195 16V5.50001c0-1.25977344.50044613-2.46796062 1.39124351-3.35875801C2.53224694 1.25045529 3.74042462.75001 5.0002.75001h3c1.25978338 0 2.4680114.50045843 3.3587813 1.39125177.7239207.72393976 1.1900396 1.65750053 1.3392612 2.65800913L12.9502 4.80001c.9812693 0 1.9224144.38983256 2.6162791 1.08370965.640508.64051937 1.0219469 1.49168293 1.0768398 2.39064757L16.6502 8.50001V13c0 .3865993-.3134007.7-.7.7-.3543827 0-.6472582-.2633436-.6936098-.6050141L15.2502 13V8.50001c0-.60997545-.2423341-1.19499697-.6736791-1.62634965-.3881797-.38818656-.900884-.6232941-1.4442077-.66643374L12.9502 6.20001l-.200005-.001ZM8.0002 2.15001h-3c-.88847322 0-1.74055888.35294665-2.36881525.98119475C2.0031419 3.75944759 1.650195 4.61153915 1.650195 5.50001V16c0 .4906428.19491101.9611938.54189114 1.3081667.34688997.346948.81740327.5418333 1.30811386.5418333h6c.49070103 0 .9612083-.1948852 1.3081253-.5418747C11.155273 16.9611775 11.3502 16.4906157 11.3502 16V5.50001c0-.88846371-.3529471-1.74056109-.9811813-2.36881177C9.74080469 2.50296764 8.88867935 2.15001 8.0002 2.15001Zm0 4.15c.38659932 0 .7.31340068.7.7 0 .35438271-.26334362.64725823-.60501415.69360983L8.0002 7.70001h-3c-.38659932 0-.7-.31340068-.7-.7 0-.35438271.26334362-.64725823.60501415-.69360983L5.0002 6.30001h3Z" fill-rule="nonzero"/></svg>