<svg viewBox="0 0 17 22" xmlns="http://www.w3.org/2000/svg"><path d="M8.0111 2.7002C8.0037 2.79926 8 2.89932 8 3.00024c0 .41997.0647.82481.1847 1.20511-.0613-.00343-.1228-.00515-.1845-.00515h-3c-.87522 0-1.71459.34767-2.33346.96654S1.7002 6.62498 1.7002 7.5002v10.5c0 .4774.18964.9352.5272 1.2728.33757.3376.79541.5272 1.2728.5272h6c.4774 0 .9352-.1896 1.2728-.5272.3376-.3376.5272-.7954.5272-1.2728v-10.5c0-.1924-.0168-.38307-.0496-.57004.2428.04601.4933.07008.7494.07008.4698 0 .9207-.081 1.3395-.22979.8515.08885 1.6515.4672 2.2623 1.07809.7033.70327 1.0984 1.65709 1.0984 2.65166v4.5c0 .4142-.3358.75-.75.75s-.75-.3358-.75-.75v-4.5c0-.59674-.2371-1.16904-.659-1.591-.422-.42195-.9943-.659-1.591-.659h-.15v9.75c0 .8752-.3477 1.7146-.9666 2.3334-.6188.6189-1.4582.9666-2.3334.9666h-6c-.87522 0-1.71459-.3477-2.33346-.9666-.61887-.6188-.96654-1.4582-.96654-2.3334v-10.5c0-1.27304.50571-2.49394 1.40588-3.39412.90018-.90017 2.12108-1.40588 3.39412-1.40588h3.0109Zm-.0109 5.55c.4142 0 .75.33578.75.75 0 .41421-.3358.75-.75.75h-3c-.41422 0-.75-.33579-.75-.75 0-.41422.33578-.75.75-.75ZM12 0c1.6569 0 3 1.34315 3 3s-1.3431 3-3 3-3-1.34315-3-3 1.3431-3 3-3Zm.8333 1.75H11c-.1011 0-.1923.06091-.231.15433-.0387.09342-.0173.20095.0542.27245L11.6464 3l-.8232.82322c-.0715.0715-.0929.17903-.0542.27245.0387.09342.1299.15433.231.15433h1.8333c.0992 0 .2005-.03341.2806-.10203.0812-.06964.1361-.17311.1361-.29083v-.28571c0-.13807-.1119-.25-.25-.25s-.25.11193-.25.25V3.75h-1.1464l.5732-.57322c.0976-.09763.0976-.25593 0-.35356L11.6036 2.25H12.75v.17857c0 .13807.1119.25.25.25s.25-.11193.25-.25v-.28571c0-.11772-.0549-.22119-.1361-.29083-.0801-.06862-.1814-.10203-.2806-.10203Z" fill-rule="evenodd"/></svg>