<svg height="24" viewBox="0 0 24 24" width="24" xmlns="http://www.w3.org/2000/svg"><path clip-rule="evenodd" d="m13.2993 4.87667c-.5773-1.00056-2.0213-1.00056-2.5986 0l-7.35431 12.74753c-.57692 1 .14479 2.2496 1.29928 2.2496h14.70863c1.1545 0 1.8762-1.2496 1.2993-2.2496zm-3.89786-.74959c1.15446-2.00111 4.04266-2.00111 5.19716 0l7.3543 12.74752c1.1538 2-.2896 4.4992-2.5986 4.4992h-14.70863c-2.30897 0-3.752403-2.4992-2.59856-4.4992zm2.59856 5.24667c.4142 0 .75.33579.75.75005v3.75c0 .4142-.3358.75-.75.75s-.75-.3358-.75-.75v-3.75c0-.41426.3358-.75005.75-.75005zm-.75 7.50005c0-.4143.3358-.75.75-.75h.0075c.4142 0 .75.3357.75.75v.0075c0 .4142-.3358.75-.75.75h-.0075c-.4142 0-.75-.3358-.75-.75z" fill-rule="evenodd"/></svg>