<svg width="34" height="31" viewBox="0 0 34 31" fill="none" xmlns="http://www.w3.org/2000/svg">
<path d="M1.49421 23.8761L0.844572 23.5014H0.844572L1.49421 23.8761ZM32.505 23.8761L33.1547 23.5014L32.505 23.8761ZM13.7514 2.63031L14.4011 3.00511L13.7514 2.63031ZM20.2478 2.63031L20.8975 2.25552L20.2478 2.63031ZM17.7496 12.0001C17.7496 11.5859 17.4138 11.2501 16.9996 11.2501C16.5854 11.2501 16.2496 11.5859 16.2496 12.0001H17.7496ZM16.2496 18.2501C16.2496 18.6643 16.5854 19.0001 16.9996 19.0001C17.4138 19.0001 17.7496 18.6643 17.7496 18.2501H16.2496ZM16.9996 23.2501V22.5001C16.5854 22.5001 16.2496 22.8359 16.2496 23.2501H16.9996ZM17.0121 23.2501H17.7621C17.7621 22.8359 17.4263 22.5001 17.0121 22.5001V23.2501ZM17.0121 23.2626V24.0126C17.4263 24.0126 17.7621 23.6768 17.7621 23.2626H17.0121ZM16.9996 23.2626H16.2496C16.2496 23.6768 16.5854 24.0126 16.9996 24.0126V23.2626ZM0.844572 23.5014C-0.886197 26.5014 1.27895 30.2501 4.74241 30.2501V28.7501C2.43343 28.7501 0.990004 26.2509 2.14385 24.2509L0.844572 23.5014ZM31.8554 24.2509C33.0092 26.2509 31.5658 28.7501 29.2568 28.7501V30.2501C32.7203 30.2501 34.8854 26.5014 33.1547 23.5014L31.8554 24.2509ZM14.4011 3.00511C15.5555 1.004 18.4437 1.00399 19.5982 3.0051L20.8975 2.25552C19.1657 -0.746144 14.8335 -0.746143 13.1018 2.25552L14.4011 3.00511ZM16.2496 12.0001V18.2501H17.7496V12.0001H16.2496ZM16.9996 24.0001H17.0121V22.5001H16.9996V24.0001ZM16.2621 23.2501V23.2626H17.7621V23.2501H16.2621ZM17.0121 22.5126H16.9996V24.0126H17.0121V22.5126ZM17.7496 23.2626V23.2501H16.2496V23.2626H17.7496ZM2.14385 24.2509L14.4011 3.00511L13.1018 2.25552L0.844572 23.5014L2.14385 24.2509ZM19.5982 3.0051L31.8554 24.2509L33.1547 23.5014L20.8975 2.25552L19.5982 3.0051ZM29.2568 28.7501H4.74241V30.2501H29.2568V28.7501Z" fill="#F35050"/>
</svg>
