<svg width="80" height="80" viewBox="0 0 80 80" fill="none" xmlns="http://www.w3.org/2000/svg">
<circle cx="40" cy="40" r="40" fill="#142477"/>
<circle cx="40" cy="40" r="32" fill="#1969FF"/>
<path d="M38.2574 20.3747C39.2396 19.8751 40.7287 19.8751 41.7426 20.3747L51.7861 25.5894C52.3881 25.9016 52.705 26.37 52.7683 26.8384V53.0367C52.7683 53.5675 52.4198 54.0671 51.7861 54.4106L41.7426 59.6253C40.7604 60.1249 39.2713 60.1249 38.2574 59.6253L28.2139 54.4106C27.5802 54.0671 27.2634 53.5675 27.2317 53.0367C27.2317 52.9742 27.2317 52.943 27.2317 52.9118V27.0258C27.2317 26.9945 27.2317 26.9633 27.2317 26.9321V26.8384C27.2634 26.37 27.5802 25.9016 28.1822 25.5894L38.2574 20.3747ZM51.1842 41.452L41.7109 46.3544C40.7287 46.854 39.2396 46.854 38.2257 46.3544L28.8158 41.452V52.9742L38.2574 57.8142C38.796 58.0952 39.3347 58.3763 39.8733 58.4075H39.9683C40.5386 58.4075 41.0772 58.1265 41.6475 57.8767L51.1842 52.9118V41.452ZM25.5842 52.4434C25.5842 53.4426 25.7109 54.0984 25.9327 54.5667C26.1228 54.9414 26.4079 55.2537 26.9465 55.5972L26.9782 55.6284C27.105 55.6909 27.2317 55.7845 27.3901 55.8782L27.5802 56.0031L28.1505 56.3466L27.3267 57.6893L26.6931 57.3146L26.598 57.2521C26.4079 57.1272 26.2495 57.0336 26.1228 56.9399C24.5703 55.9094 24 54.8165 24 52.5059V52.4434H25.5842ZM39.1762 34.4262C39.1129 34.4575 39.0495 34.4887 38.9861 34.5199L28.9109 39.7034C28.9109 39.7034 28.8792 39.7034 28.8792 39.7346H28.9109L38.9861 44.9805C39.0495 45.0117 39.1129 45.0429 39.1762 45.0742V34.4262ZM40.7604 34.4262V45.0429C40.8238 45.0117 40.8871 44.9805 40.9505 44.9493L50.9941 39.7346C50.9941 39.7346 51.0257 39.7346 51.0257 39.7034H50.9941L40.9822 34.5199C40.9188 34.4887 40.8554 34.4575 40.7604 34.4262ZM51.1842 28.6807L42.1545 33.3646L51.1842 38.0484V28.6807ZM28.8158 28.7119V38.0484L37.8139 33.3958L28.8158 28.7119ZM40.9822 21.7486C40.4436 21.4676 39.5248 21.4676 38.9861 21.7486L28.9109 26.9633C28.9109 26.9633 28.8792 26.9633 28.8792 26.9945H28.9109L38.9545 32.2092C39.4931 32.4902 40.4119 32.4902 40.9505 32.2092L50.9941 26.9945C50.9941 26.9945 51.0257 26.9945 51.0257 26.9633H50.9941L40.9822 21.7486ZM52.6733 22.3419L53.3069 22.7166L53.402 22.7791C53.5921 22.904 53.7505 22.9977 53.8772 23.0913C55.398 24.0906 55.9683 25.2147 56 27.4941V27.5566H54.4158C54.4158 26.5574 54.2891 25.9016 54.0673 25.4333C53.8772 25.0585 53.5921 24.7463 53.0535 24.4028L53.0218 24.3716C52.895 24.3091 52.7683 24.2155 52.6099 24.1218L52.4198 23.9969L51.8495 23.6534L52.6733 22.3419Z" fill="white"/>
</svg>
