<svg width="50" height="50" viewBox="0 0 50 50" fill="none" xmlns="http://www.w3.org/2000/svg">
<path d="M3.1521 23.4375L25.1813 1.5625L46.9021 23.4375" stroke="#0085FF" stroke-width="2" stroke-linecap="round" stroke-linejoin="round"/>
<path d="M18.7771 26.5625C18.7771 28.2201 19.4356 29.8098 20.6077 30.9819C21.7798 32.154 23.3695 32.8125 25.0271 32.8125C26.6847 32.8125 28.2744 32.154 29.4465 30.9819C30.6186 29.8098 31.2771 28.2201 31.2771 26.5625C31.2771 24.9049 30.6186 23.3152 29.4465 22.1431C28.2744 20.971 26.6847 20.3125 25.0271 20.3125C23.3695 20.3125 21.7798 20.971 20.6077 22.1431C19.4356 23.3152 18.7771 24.9049 18.7771 26.5625Z" stroke="#0085FF" stroke-width="2" stroke-linecap="round" stroke-linejoin="round"/>
<path d="M40.6645 17.1563L38.0083 39.4313C37.918 40.1907 37.5524 40.8907 36.9807 41.3986C36.409 41.9066 35.6709 42.1873 34.9062 42.1875H15.4562C14.6911 42.1878 13.9524 41.9073 13.3803 41.3993C12.8082 40.8913 12.4423 40.1911 12.352 39.4313L9.677 16.9584" stroke="#0085FF" stroke-width="2" stroke-linecap="round" stroke-linejoin="round"/>
<path d="M25.0271 48.4375V42.1875" stroke="#0085FF" stroke-width="2" stroke-linecap="round" stroke-linejoin="round"/>
</svg>
