<?xml version="1.0" encoding="UTF-8"?>
<svg width="80px" height="80px" viewBox="0 0 80 80" version="1.1" xmlns="http://www.w3.org/2000/svg" xmlns:xlink="http://www.w3.org/1999/xlink">
    <title>oasis-network-rose-logo</title>
    <g id="Page-1" stroke="none" stroke-width="1" fill="none" fill-rule="evenodd">
        <g id="oasis-network-rose-logo">
            <circle id="Oval" fill="#142477" fill-rule="nonzero" cx="40" cy="40" r="40"></circle>
            <circle id="Oval" fill="#F6297C" fill-rule="nonzero" cx="40" cy="40" r="32"></circle>
            <g id="Clipped" transform="translate(15.000000, 15.000000)" fill="#FFFFFF">
                <path d="M0,25.0009299 L25.0088435,0 L50,25.0073428 L25.0088435,50 L0,25.0009299 Z M40,18 C38.9618862,19.1603224 36.698594,22.0824364 36.698594,25.5 C36.698594,28.9175636 38.9618862,31.8395043 40,33 C33.3316029,32.6469488 28,25.5 28,25.5 C28,25.5 33.3316029,18.3530512 40,18 Z M10,18 C16.6683049,18.3530512 22,25.5 22,25.5 C22,25.5 16.6683049,32.6469488 10,33 C11.0379933,31.8395043 13.3014458,28.9175636 13.3014458,25.5 C13.3014458,22.0824364 11.0379933,19.1603224 10,18 Z M9.25226398,16.9700564 C8.20081269,18.169747 6,21.0908545 6,24.5000962 C6,27.9226348 8.21809398,30.8531901 9.2645782,32.0441327 L14.6477018,37.5058129 L14.6730029,37.4807938 C16.8280081,35.3443753 20.4105138,32.536466 24.4947291,32.3224917 C23.4664747,33.4847412 21.1990376,36.4397906 21.1990376,39.8976709 C21.1990376,43.355726 23.4664747,46.3107755 24.4947291,47.4730249 L24.9907471,48 L25.4869376,47.4730249 C26.5151919,46.3107755 28.782629,43.355726 28.782629,39.8976709 C28.782629,36.4397906 26.5151919,33.4847412 25.4869376,32.3224917 C29.5871923,32.5371658 33.1815984,35.3664201 35.3339993,37.5058129 L40.8440077,31.9151883 L40.8567703,31.9003168 C41.9462508,30.6311677 44,27.7935154 44,24.5000962 C44,21.1937301 41.9302113,18.346805 40.8440077,17.0848292 L35.359697,11.5202909 L35.3343442,11.5454499 C33.1814259,13.6847553 29.5870199,16.5137646 25.4869376,16.7284387 C26.5151919,15.5662242 28.782629,12.6112973 28.782629,9.15324207 C28.782629,5.69518689 26.5151919,2.74020744 25.4869376,1.57801047 L24.9907471,1 L24.4947291,1.57801047 C23.4664747,2.74020744 21.1990376,5.69518689 21.1990376,9.15324207 C21.1990376,12.6112973 23.4664747,15.5662242 24.4947291,16.7284387 C20.3786072,16.5128898 16.7721284,13.662553 14.6220214,11.5202909 L9.25226398,16.9700564 Z" id="Shape"></path>
            </g>
        </g>
    </g>
</svg>