<svg fill="black" height="24" viewBox="0 0 24 24" width="24" xmlns="http://www.w3.org/2000/svg"><path clip-rule="evenodd" d="m12 3.75c-4.55635 0-8.25 3.69365-8.25 8.25 0 4.5563 3.69365 8.25 8.25 8.25 4.5563 0 8.25-3.6937 8.25-8.25 0-4.55635-3.6937-8.25-8.25-8.25zm-9.75 8.25c0-5.38478 4.36522-9.75 9.75-9.75 5.3848 0 9.75 4.36522 9.75 9.75 0 5.3848-4.3652 9.75-9.75 9.75-5.38478 0-9.75-4.3652-9.75-9.75zm9-3.75c0-.41421.3358-.75.75-.75h.0075c.4142 0 .75.33579.75.75v.0075c0 .41421-.3358.75-.75.75h-.0075c-.4142 0-.75-.33579-.75-.75zm-.2939 2.3084c1.1462-.57308 2.4368.4622 2.126 1.7055l-.709 2.836.0415-.0207c.3705-.1853.821-.0351 1.0062.3354.1853.3705.0351.821-.3354 1.0062l-.0415.0208c-1.1462.5731-2.4368-.4622-2.126-1.7055l.709-2.836-.0415.0207c-.3705.1853-.821.0351-1.0062-.3354-.1853-.3705-.0351-.821.3354-1.0062z" fill-rule="evenodd"/></svg>