<svg height="24" viewBox="0 0 24 24" width="24" xmlns="http://www.w3.org/2000/svg"><path clip-rule="evenodd" d="m2.25 12c0-5.38478 4.36522-9.75 9.75-9.75 5.3848 0 9.75 4.36522 9.75 9.75 0 5.3848-4.3652 9.75-9.75 9.75-5.38478 0-9.75-4.3652-9.75-9.75zm8.7062-1.4416c1.1463-.57307 2.4369.4622 2.1261 1.7055l-.709 2.836.0415-.0207c.3704-.1852.8209-.0351 1.0062.3354.1852.3705.0351.821-.3354 1.0062l-.0415.0208c-1.1462.5731-2.4369-.4622-2.126-1.7055l.709-2.836-.0415.0207c-.3705.1853-.821.0351-1.0063-.3354-.1852-.3705-.035-.821.3355-1.0062zm1.0438-1.5584c.4142 0 .75-.33579.75-.75s-.3358-.75-.75-.75-.75.33579-.75.75.3358.75.75.75z" fill-rule="evenodd"/></svg>