<?xml version="1.0" encoding="UTF-8"?>
<svg width="80px" height="80px" viewBox="0 0 80 80" version="1.1" xmlns="http://www.w3.org/2000/svg" xmlns:xlink="http://www.w3.org/1999/xlink">
    <title>phala</title>
    <defs>
        <polygon id="path-1" points="0 0 38 0 38 8 0 8"></polygon>
    </defs>
    <g id="Page-1" stroke="none" stroke-width="1" fill="none" fill-rule="evenodd">
        <g id="phala">
            <circle id="Oval" fill="#142477" fill-rule="nonzero" cx="40" cy="40" r="40"></circle>
            <circle id="Oval" fill="#1F293D" fill-rule="nonzero" cx="40" cy="40" r="32"></circle>
            <g id="Clipped" transform="translate(20.000000, 25.000000)">
                <path d="M12.6056935,29.5024164 L36.8748114,29.5024164 L29.3942847,24.4975836 L5.12518862,24.4975836 L12.6056935,29.5024164 Z M39.3088586,31 L12.4091058,31 C12.2809597,31 12.1557261,30.9613374 12.0465107,30.8887464 L2.3278182,24.38633 C2.06497314,24.2103758 1.94192379,23.8663576 2.02638369,23.5444324 C2.1101155,23.2225072 2.38169779,23 2.69041332,23 L29.5901443,23 C29.7182903,23 29.8442521,23.0394516 29.9534675,23.1112536 L39.6721818,29.614459 C39.9350269,29.7896242 40.0580762,30.1336424 39.9736163,30.4555676 C39.8891564,30.7774928 39.6183022,31 39.3088586,31 Z" id="Shape" fill="#FFFFFF"></path>
                <g>
                    <mask id="mask-2" fill="white">
                        <use xlink:href="#path-1"></use>
                    </mask>
                    <g id="Path"></g>
                    <path d="M10.6057091,6.5024187 L34.8748365,6.5024187 L27.3943069,1.49743532 L3.12518676,1.49743532 L10.6057091,6.5024187 Z M37.3088847,8.00007891 L10.4091214,8.00007891 C10.2809752,8.00007891 10.1557415,7.96141515 10.0465261,7.88882198 L0.327815245,1.3861784 C0.0649729945,1.21021887 -0.0580764034,0.866190373 0.0263835383,0.544255449 C0.110115377,0.222321315 0.381694863,-0.000192529709 0.690410512,-0.000192529709 L27.5901666,-0.000192529709 C27.7183127,-0.000192529709 27.8442745,0.0392602796 27.9534899,0.111064392 L37.6722081,6.61446468 C37.9350532,6.78963516 38.0581026,7.13366365 37.9736427,7.45559858 C37.8891827,7.77756506 37.6183284,8.00007891 37.3088847,8.00007891 Z" id="Shape" fill="#FFFFFF" mask="url(#mask-2)"></path>
                </g>
                <path d="M18.0002064,16.0396648 C17.9779942,13.8311314 19.7510086,12.0224187 21.9603352,12.0002064 C24.1688686,11.9779942 25.9775813,13.7510086 25.9997936,15.959542 C26.0220058,18.1696619 24.2489914,19.9775813 22.0396648,19.9997936 C19.8311314,20.0220058 18.0224187,18.2489914 18.0002064,16.0396648 Z" id="Path" fill="#FFFFFF"></path>
                <path d="M22.0013699,13.0669417 L21.9711204,13.0669417 C21.1873845,13.0751912 20.4538352,13.3872991 19.9052201,13.9462061 C19.356605,14.5064879 19.0589228,15.24551 19.0671727,16.0292172 C19.0829849,17.6454413 20.4057111,18.9227464 22.0295568,18.9330583 C23.6465277,18.9165593 24.9493168,17.5876944 24.9328171,15.9707828 C24.9252547,15.1870757 24.6124478,14.4542408 24.0528329,13.9056458 C23.5007804,13.3639254 22.7734184,13.0669417 22.0013699,13.0669417 Z M22,20 C19.8124093,20 18.0221915,18.2318467 18.0001919,16.0395291 C17.9898796,14.9719 18.3954973,13.9633926 19.1434838,13.1996219 C19.8914703,12.4372261 20.8917648,12.0109994 21.9601206,12.0006875 C21.9738703,12 21.9883076,12 22.0020573,12 C23.0546009,12 24.0466455,12.4056028 24.7994445,13.14325 C25.5625557,13.8912091 25.9887981,14.8914669 25.9997979,15.9597834 C26.0217975,18.1651628 24.2453294,19.9773137 22.0398692,19.9993125 C22.0268069,19.9993125 22.0137446,20 22,20 Z" id="Shape" fill="#FFFFFF"></path>
            </g>
        </g>
    </g>
</svg>