<?xml version="1.0" encoding="UTF-8"?>
<svg width="80px" height="80px" viewBox="0 0 80 80" version="1.1" xmlns="http://www.w3.org/2000/svg" xmlns:xlink="http://www.w3.org/1999/xlink">
    <title>acala</title>
    <defs>
        <linearGradient x1="131.43927%" y1="112.753125%" x2="59.0390546%" y2="-16.3746094%" id="linearGradient-1">
            <stop stop-color="#E40C5B" offset="0%"></stop>
            <stop stop-color="#FF4C3B" offset="100%"></stop>
        </linearGradient>
        <linearGradient x1="1895.65833%" y1="1226.21259%" x2="474.352577%" y2="-853.924086%" id="linearGradient-2">
            <stop stop-color="#E40C5B" offset="0%"></stop>
            <stop stop-color="#FF4C3B" offset="100%"></stop>
        </linearGradient>
    </defs>
    <g id="Page-1" stroke="none" stroke-width="1" fill="none" fill-rule="evenodd">
        <g id="acala" fill-rule="nonzero">
            <circle id="Oval" fill="#142477" cx="40" cy="40" r="40"></circle>
            <rect id="Rectangle" fill="#FFFFFF" x="8" y="8" width="64" height="64" rx="32"></rect>
            <g id="Karura-K-Gradient.79f0acd7fdba29903fd01e203c035831" transform="translate(23.000000, 21.000000)">
                <path d="M27.1714698,0 L14.9103834,11.4677641 C13.6409425,12.6572766 11.9888686,13.314782 10.2740265,13.3230781 L6.61939082,13.3310859 L6.60753459,0 L0,0 L0,38.0976484 L3.60340659,38.0976484 C5.61801482,38.0976484 7.49852718,36.997375 8.48417941,35.1911328 C8.4920413,35.1789609 8.49597224,35.1667891 8.50386583,35.1587812 C9.15833612,33.9486406 9.48555541,31.5578602 9.42247012,29.9259641 C9.28054406,26.1954445 8.69705265,25.225218 8.69705265,25.225218 C8.57484471,27.7825609 5.98070771,27.9205195 5.98070771,27.9205195 C7.82577818,26.1061414 6.82043953,24.7338586 6.82043953,24.7338586 C3.55214583,27.1291875 2.73605672,24.5715883 2.67298094,24.3401305 C2.77549295,24.4294656 3.70589641,25.229382 5.47212612,22.7367422 C7.34084565,20.102268 9.83246112,15.7097906 11.4174236,14.5814258 C13.0060635,13.4488969 14.5121852,13.542332 14.5121852,13.542332 C14.5121852,13.542332 15.3796239,12.3323836 17.6739314,11.3256414 C19.9685242,10.3271633 21.4391089,11.792657 21.4391089,11.792657 C19.0934456,13.74115 15.9079236,16.9399508 15.7302703,21.5228859 C15.5884394,25.2332258 23.35519,31.5985078 21.9908675,41 C22.8072356,38.8647969 23.1343598,36.72575 22.854502,34.0786875 C22.6295823,31.9435805 21.2931568,27.482268 21.2931568,27.482268 L28.7521844,38.0934844 L37,38.0934844 L20.8791081,15.2917508 L37,0 L27.1714698,0 Z" id="Path" fill="url(#linearGradient-1)"></path>
                <path d="M12.4497057,16.087669 C12,16.7862015 12,17 12,17 C12,17 13.5741482,16.7512396 14,15 C14.0032795,15 12.9948044,15.2422412 12.4497057,16.087669 Z" id="Path" fill="url(#linearGradient-2)"></path>
            </g>
        </g>
    </g>
</svg>