<svg width="80" height="80" viewBox="0 0 80 80" fill="none" xmlns="http://www.w3.org/2000/svg">
<circle cx="40" cy="40" r="40" fill="#142477"/>
<ellipse cx="39.9918" cy="39.9961" rx="31.9508" ry="31.9961" fill="#0E133E"/>
<path d="M33.2617 12.8044L8.06489 37.8655C7.5296 46.3953 10.3413 54.2023 15.2083 60.192L33.2617 12.8044Z" fill="url(#paint0_linear_5658_131003)"/>
<path d="M24.9497 50.8505L41.1848 8C49.7801 8.4291 53.9201 10.2077 60.4072 15.4014L24.9497 50.8505Z" fill="url(#paint1_linear_5658_131003)"/>
<path d="M40.0159 44.0983L19.4947 64.5434C30.5343 73.9119 47.9155 75.0638 60.5371 64.4847L40.0159 44.0983Z" fill="url(#paint2_linear_5658_131003)"/>
<path d="M64.6932 19.6828L44.1721 39.9431L64.6932 60.2944C74.2429 48.827 74.6264 31.6771 64.6932 19.6828Z" fill="url(#paint3_linear_5658_131003)"/>
<defs>
<linearGradient id="paint0_linear_5658_131003" x1="72.4617" y1="7.99999" x2="8.05596" y2="71.9014" gradientUnits="userSpaceOnUse">
<stop offset="0.166667" stop-color="#FF8C00"/>
<stop offset="0.552083" stop-color="#CA015C"/>
<stop offset="1" stop-color="#850000"/>
</linearGradient>
<linearGradient id="paint1_linear_5658_131003" x1="72.4617" y1="7.99999" x2="8.05596" y2="71.9014" gradientUnits="userSpaceOnUse">
<stop offset="0.166667" stop-color="#FF8C00"/>
<stop offset="0.552083" stop-color="#CA015C"/>
<stop offset="1" stop-color="#850000"/>
</linearGradient>
<linearGradient id="paint2_linear_5658_131003" x1="72.4617" y1="7.99999" x2="8.05596" y2="71.9014" gradientUnits="userSpaceOnUse">
<stop offset="0.166667" stop-color="#FF8C00"/>
<stop offset="0.552083" stop-color="#CA015C"/>
<stop offset="1" stop-color="#850000"/>
</linearGradient>
<linearGradient id="paint3_linear_5658_131003" x1="72.4617" y1="7.99999" x2="8.05596" y2="71.9014" gradientUnits="userSpaceOnUse">
<stop offset="0.166667" stop-color="#FF8C00"/>
<stop offset="0.552083" stop-color="#CA015C"/>
<stop offset="1" stop-color="#850000"/>
</linearGradient>
</defs>
</svg>
