<?xml version="1.0" encoding="UTF-8"?>
<svg width="80px" height="80px" viewBox="0 0 80 80" version="1.1" xmlns="http://www.w3.org/2000/svg" xmlns:xlink="http://www.w3.org/1999/xlink">
    <title>phala</title>
    <defs>
        <linearGradient x1="-0.896740625%" y1="50.9240625%" x2="100.896875%" y2="49.0625%" id="linearGradient-1">
            <stop stop-color="#29CCB9" offset="0%"></stop>
            <stop stop-color="#0091FF" offset="49%"></stop>
            <stop stop-color="#FF66B7" offset="100%"></stop>
        </linearGradient>
    </defs>
    <g id="Page-1" stroke="none" stroke-width="1" fill="none" fill-rule="evenodd">
        <g id="phala">
            <circle id="Oval" fill="#142477" fill-rule="nonzero" cx="40" cy="40" r="40"></circle>
            <circle id="Oval" fill="#FFFFFF" fill-rule="nonzero" cx="40" cy="40" r="32"></circle>
            <path d="M22.87826,62.9478 C15.89566,57.7304 11.36522,49.3914 11.36522,40 C11.36522,24.1913 24.1913,11.36522 40,11.36522 C53.0522,11.36522 67.3044,19.16522 70.7478,31.113 C66.8956,17.76522 54.5914,8 40,8 C22.33044,8 8,22.33044 8,40 C8,57.6696 22.33044,72 40,72 C57.6696,72 72,57.6696 72,40 L72,38.313 L70.2434,38.313 C70.1914,38.313 70.113,38.313 70.0086,38.313 C69.8,38.313 69.5044,38.3044 69.1218,38.287 C68.3652,38.2608 67.3218,38.2086 66.1478,38.1044 C63.7478,37.8956 61.0086,37.487 59.1478,36.7392 C56.1478,35.5392 54.4522,33.9566 52.5218,32.0956 L52.4086,31.9914 C50.4696,30.1304 48.2956,28.0348 44.513,26.26086 C40.7914,24.51304 36.6782,24.7913 33.6608,25.4174 C32.1304,25.73044 30.8086,26.14782 29.8782,26.48696 C29.4086,26.65218 29.0348,26.8087 28.774,26.91304 C27.25218,27.55652 25.77392,28.313 24.28696,29.0174 C24.28696,29.0174 27.2174,29.8174 28.6608,30.2696 C28.713,30.287 28.7914,30.313 28.9044,30.3478 C29.1218,30.4174 29.4348,30.5304 29.8086,30.687 C30.574,31 31.574,31.4608 32.5652,32.1044 C34.1304,33.1044 35.426,34.374 35.9566,35.9218 C32.6434,36.3566 29.5304,37.8174 27.2,39.1826 C25.7913,40.0086 24.6174,40.8434 23.7913,41.4608 C23.3826,41.774 23.05218,42.0348 22.82608,42.2174 C22.63478,42.374 19.64348,45.0086 19.64348,45.0086 C19.64348,45.0086 23.50434,45.4174 25.4087,45.8 C26.67826,46.0522 28.3826,46.4696 30.174,47.087 C31.9652,47.713 33.774,48.5304 35.2782,49.5826 C36.7826,50.6348 37.887,51.8434 38.426,53.2348 C40.0086,57.287 38.4522,61.226 35.3304,63.4434 C32.2434,65.6348 27.55652,66.1566 22.86956,62.9392 L22.87826,62.9478 Z M34.1644437,67.3412625 C35.4322369,66.938974 36.6127488,66.348531 37.6794327,65.6126423 C41.9465706,62.6433046 44.1937664,57.2009949 41.9815637,51.6559482 C41.1071403,49.4738678 39.445776,47.813739 37.6007989,46.5472388 C35.7471742,45.2809355 33.6222529,44.3566954 31.6461525,43.6806382 C30.3520139,43.235641 29.0930695,42.8933809 28,42.6367351 C28.3934101,42.3885522 28.8044776,42.1319063 29.250337,41.8750636 C31.8561107,40.3777003 35.1438462,39 38.2916095,39 C43.0393988,39 46.5720854,40.428872 49.9471024,41.9522148 C50.2531908,42.0890008 50.5592792,42.2344466 50.8740153,42.3714293 C53.8906554,43.7577894 57.0559153,45.2124441 60.7370206,45.2124441 C64.418327,45.2124441 67.085238,44.2283725 69,43.2013953 C67.294995,57.1667492 55.149801,68 40.4163297,68 C38.274113,68 36.1841848,67.7691368 34.1819402,67.3412625 L34.1644437,67.3412625 Z M65,41.2502716 C63.742529,41.6825419 62.216412,42 60.4388008,42 C57.5772316,42 55.1145431,40.8358519 51.9929038,39.3540429 C51.7154824,39.2217856 51.4380609,39.0895283 51.1518641,38.957271 C48.0214495,37.4843874 44.4055972,35.9232646 39.6970116,35.6411022 C39.0639882,32.4748384 36.7054074,30.3053727 34.676302,28.9823941 C34.4509345,28.832489 34.2253675,28.6913064 34,28.5590491 C34.1994403,28.5148281 34.4074565,28.4620875 34.6242481,28.4178665 C37.3470068,27.8446164 40.5901052,27.7034337 43.3389906,29.0264123 C46.5994403,30.5875351 48.4464567,32.3865993 50.3626789,34.2564577 L50.4320842,34.3181236 C52.4005597,36.2407226 54.490295,38.2604861 58.1234986,39.7420923 C60.1440281,40.562412 62.7626789,41.0034048 65,41.2502716 Z" id="Shape" fill="url(#linearGradient-1)"></path>
        </g>
    </g>
</svg>