<svg viewBox="0 0 20 20" xmlns="http://www.w3.org/2000/svg"><path d="M9.283.28600023c-1.813.179-3.279.683-4.65 1.597-1.09726886.7162699-2.0337301 1.65273114-2.75 2.75-.803 1.205-1.315 2.563-1.538 4.084-.083.564-.083 2.00199997 0 2.56599997.3 2.044 1.131 3.817 2.486 5.3 1.34798739 1.4638981 3.11039206 2.4818508 5.052 2.918.812.178 1.156.213 2.117.213.961 0 1.304-.035 2.117-.212 2.774-.608 5.228-2.495 6.522-5.019.6753942-1.2873584 1.0459288-2.712702 1.083-4.166.092782-2.54676576-.8248913-5.02696375-2.553-6.89999997-1.3338949-1.44560881-3.07073-2.45789176-4.986-2.906-.706-.16-1.185-.214-2-.226a17.20300001 17.20300001 0 0 0-.9.001m1.942 1.544c.8442834.12431992 1.6630742.38363181 2.425.768.8152435.38905373 1.5550314.91960183 2.185 1.567.6427898.62609815 1.1710872 1.35982572 1.561 2.168.591 1.193.851 2.312.851 3.667 0 .77399997-.049 1.22899997-.199 1.86699997-.2933453 1.2109075-.8449375 2.3441105-1.617 3.322-.271.335-.907.971-1.242 1.242-1.129.914-2.583 1.541-4.072 1.758-.599.087-1.716.079-2.334-.017-.8471095-.1242513-1.66864891-.3842535-2.433-.77-1.6362255-.794254-2.95774597-2.1157745-3.752-3.752-.38575348-.7644295-.64607637-1.5859154-.771-2.433-.103-.665-.103-1.76899997 0-2.43399997.12492363-.84708461.38524652-1.66857047.771-2.433.79425403-1.6362255 2.1157745-2.95774597 3.752-3.752 1.005-.492 1.825-.718 3.067-.845.314-.032 1.386.014 1.808.077m-1.342 3.691c-.269.058-.359.098-.448.199-.231.263-.229.8.004 1.064.254.29.943.273 1.16-.028.092-.127.129-.269.132-.499.004-.349-.143-.615-.378-.687-.134-.041-.385-.067-.47-.049m-.533 2.918c-.352.067-.741.315-.823.525-.12.306.1.827.417.992.131.067.372.066.536-.003.072-.029.136-.048.143-.041.007.006-.154.67799997-.358 1.49199997-.357 1.428-.37 1.49-.358 1.779.01.252.029.337.118.526.281.6.934.957 1.565.857.396-.064.794-.302.883-.53.12-.306-.1-.827-.417-.992-.131-.067-.372-.066-.536.003-.072.029-.136.048-.143.041-.007-.006.154-.678.358-1.492.357-1.42799997.37-1.48999997.358-1.77899997-.01-.252-.029-.337-.118-.526-.1432756-.3071769-.3860474-.55699583-.689-.709-.348-.17-.594-.208-.936-.143" fill-rule="nonzero"/></svg>