<svg viewBox="0 0 21 21" xmlns="http://www.w3.org/2000/svg"><path d="M10 1.25c1.461 0 2.847.32136 4.0911.89725C14.0314 2.42203 14 2.70735 14 3c0 .28516.0298.56334.0866.83161C12.8818 3.14333 11.4868 2.75 10 2.75c-4.55635 0-8.25 3.69365-8.25 8.25 0 4.5563 3.69365 8.25 8.25 8.25 4.5563 0 8.25-3.6937 8.25-8.25 0-1.4868-.3933-2.88182-1.0816-4.08656C17.4367 6.97016 17.7148 7 18 7c.2927 0 .578-.03143.8527-.09109C19.4286 8.153 19.75 9.539 19.75 11c0 5.3848-4.3652 9.75-9.75 9.75C4.61522 20.75.25 16.3848.25 11c0-5.38478 4.36522-9.75 9.75-9.75Zm0 3c.4142 0 .75.33579.75.75v.8157c.6268.11109 1.2245.36312 1.7191.75608l.4149.32959c.3244.25765.3784.72944.1208 1.05377-.2577.32433-.7295.37839-1.0538.12074l-.4149-.32959c-.2271-.18043-.4969-.31167-.7861-.3937v2.95701c.6521.1048 1.2881.3495 1.8214.7494.745.5588 1.1786 1.3445 1.1786 2.191 0 .8465-.4336 1.6322-1.1786 2.191-.5333.3999-1.1693.6446-1.8214.7494V17c0 .4142-.3358.75-.75.75s-.75-.3358-.75-.75v-.8096c-.6521-.1048-1.28794-.3495-1.82114-.7494l-.87887-.6592c-.33137-.2485-.39852-.7186-.14998-1.05.24853-.3314.71864-.3985 1.05-.15l.87889.6592c.2575.1931.5739.3361.9211.4206v-2.9772c-.6173-.1094-1.217-.357-1.71942-.7561-.71236-.5659-1.11306-1.3496-1.11306-2.17827 0-.8287.4007-1.61235 1.11306-2.17825.49472-.39302 1.09252-.64506 1.71942-.75613V5c0-.41421.3358-.75.75-.75Zm.75 7.5884v2.8232c.3472-.0844.6638-.2274.9213-.4206.4265-.3199.5787-.6859.5787-.991 0-.3051-.1522-.6711-.5787-.991-.2575-.1932-.5741-.3362-.9213-.4206Zm-1.5-4.48588c-.2893.08202-.5592.21328-.7864.39377-.3937.31278-.54608.68078-.54608 1.00374 0 .32297.15238.69097.54608 1.00377.2224.1767.4916.31.7864.3937ZM18 0c1.6569 0 3 1.34315 3 3s-1.3431 3-3 3-3-1.34315-3-3 1.3431-3 3-3Zm.5714 1.75H17c-.0976 0-.1863.05684-.2271.14554s-.0263.19303.0373.26716L17.5279 3l-.7177.8373c-.0636.07413-.0781.17846-.0373.26716S16.9024 4.25 17 4.25h1.5714c.1042 0 .2041-.04139.2778-.11507.0737-.07367.1151-.1736.1151-.27779v-.28571c0-.13807-.1119-.25-.25-.25s-.25.11193-.25.25V3.75h-.9207l.5034-.5873c.0802-.09362.0802-.23178 0-.3254l-.5034-.5873h.9207v.17857c0 .13807.1119.25.25.25s.25-.11193.25-.25v-.28571c0-.10419-.0414-.20412-.1151-.27779-.0737-.07368-.1736-.11507-.2778-.11507Z" fill-rule="evenodd"/></svg>