<svg viewBox="0 0 20 20" xmlns="http://www.w3.org/2000/svg"><path d="M10 .25c5.3848003 0 9.75 4.36521314 9.75 9.75 0 5.3848136-4.3651864 9.75-9.75 9.75C4.61521314 19.75.25 15.3848003.25 10 .25 4.61522644 4.61522644.25 10 .25Zm0 1.5c-4.55634644 0-8.25 3.69365356-8.25 8.25 0 4.5563721 3.69363923 8.25 8.25 8.25 4.5563864 0 8.25-3.6936136 8.25-8.25 0-4.55636077-3.6936279-8.25-8.25-8.25Zm0 1.5c.37969577 0 .69349096.28215388.74315338.64822944L10.75 4l.00043382.81578438c.55380688.09821787 1.08486658.3064667 1.54221218.62474633l.1764616.13125239.4149.32959c.324333.25764503.3783943.72943147.1207493 1.05376449-.2342228.29484821-.6454219.36633136-.9619258.18331901l-.0918387-.0625697-.4149038-.32959301c-.2268068-.18017415-.4961476-.31128759-.78485855-.39334033l-.00080852 2.95651918c.67259437.10799676 1.30381237.36167477 1.82100307.7495457C14.1428918 11.2377195 14.1428918 13.2622805 12.5714 14.441c-.5237751.3928313-1.157334.6426051-1.82071364.7493207L10.75 16c0 .4142136-.33578644.75-.75.75-.37969577 0-.69349096-.2821539-.74315338-.6482294L9.25 16l.00052071-.8095213c-.58783408-.0944344-1.15227924-.3011918-1.63770385-.6202729l-.18396761-.1292214-.87887-.6592c-.33136226-.2485396-.39850328-.7186429-.14996368-1.0500052.22594509-.3012384.6350007-.3841121.9564645-.209959l.09354068.0599954.87886646.6591973c.26398171.1979981.58140155.3382327.92108082.4207038l-.00001392-2.97718236c-.63570171-.11251705-1.23130619-.36854753-1.71937808-.75626251-1.48407397-1.17895118-1.48406963-3.17753864.00001-4.35648366.49481048-.39307839 1.09268371-.64513841 1.71967166-.75618028L9.25 4c0-.41421356.33578644-.75.75-.75Zm.75100166 7.58860131.0002591 2.82287549c.33930974-.0825024.65637714-.2226552.92011464-.4204584.7715328-.5786989.7715328-1.4033379.000041-1.9820061-.2573468-.1929991-.5735194-.33593633-.92041474-.42041099ZM9.24983738 6.35256406c-.28922866.08202705-.55906201.21327032-.78622599.39372983-.72811469.57841046-.72811654 1.42906301-.00001499 2.00746826.22223721.17654099.49140981.30995873.78659048.3937501l-.0003495-2.79494819Z" fill-rule="nonzero"/></svg>