<svg width="80" height="80" viewBox="0 0 80 80" fill="none" xmlns="http://www.w3.org/2000/svg">
<circle cx="40" cy="40" r="40" fill="#142477"/>
<circle cx="40" cy="40" r="32" fill="#171E43"/>
<path d="M58.5419 35.0172C58.9691 29.0361 55.2095 23.1404 49.5702 20.7479C43.9308 18.27 36.8389 19.6371 32.5667 23.9948C29.6616 26.8145 28.2944 30.9159 28.2944 34.9318C38.3769 35.1026 48.4594 35.0172 58.5419 35.0172Z" fill="#53CBC8"/>
<path d="M49.2608 58.9419C49.8589 58.9419 50.3716 59.2837 50.3716 59.7109C50.3716 60.1381 49.8589 60.4799 49.2608 60.4799H33.0263C32.4282 60.4799 31.9155 60.1381 31.9155 59.7109C31.9155 59.2837 32.4282 58.9419 33.0263 58.9419H49.2608Z" fill="#E1147B"/>
<path d="M29.5234 60.4799C30.1369 60.4799 30.6342 59.9825 30.6342 59.3691C30.6342 58.7556 30.1369 58.2583 29.5234 58.2583C28.9099 58.2583 28.4126 58.7556 28.4126 59.3691C28.4126 59.9825 28.9099 60.4799 29.5234 60.4799Z" fill="#E1147B"/>
<path d="M39.2646 56.3781C39.8781 56.3781 40.3754 55.8807 40.3754 55.2673C40.3754 54.6538 39.8781 54.1565 39.2646 54.1565C38.6511 54.1565 38.1538 54.6538 38.1538 55.2673C38.1538 55.8807 38.6511 56.3781 39.2646 56.3781Z" fill="#E1147B"/>
<path d="M58.3175 54.1565C58.9156 54.1565 59.4283 54.6692 59.4283 55.2673C59.4283 55.8654 58.9156 56.3781 58.3175 56.3781H42.4248C41.8266 56.3781 41.314 55.8654 41.314 55.2673C41.314 54.6692 41.8266 54.1565 42.4248 54.1565H58.3175Z" fill="#E1147B"/>
<path d="M18.415 52.2772C19.0285 52.2772 19.5258 51.7799 19.5258 51.1664C19.5258 50.553 19.0285 50.0557 18.415 50.0557C17.8015 50.0557 17.3042 50.553 17.3042 51.1664C17.3042 51.7799 17.8015 52.2772 18.415 52.2772Z" fill="#E1147B"/>
<path d="M34.2224 50.0557C34.8205 50.0557 35.3332 50.5683 35.3332 51.1664C35.3332 51.7646 34.8205 52.2772 34.2224 52.2772H21.1494C20.5512 52.2772 20.0386 51.7646 20.0386 51.1664C20.0386 50.5683 20.5512 50.0557 21.1494 50.0557H34.2224Z" fill="#E1147B"/>
<path d="M63.5298 50.0557C64.128 50.0557 64.6406 50.5683 64.6406 51.1664C64.6406 51.7646 64.128 52.2772 63.5298 52.2772H37.5546C36.9565 52.2772 36.4438 51.7646 36.4438 51.1664C36.4438 50.5683 36.9565 50.0557 37.5546 50.0557H63.5298Z" fill="#E1147B"/>
<path d="M58.6589 45.9548C59.257 45.9548 59.7697 46.4675 59.7697 47.0656C59.7697 47.6637 59.257 48.1764 58.6589 48.1764H26.788C26.1899 48.1764 25.6772 47.6637 25.6772 47.0656C25.6772 46.4675 26.1899 45.9548 26.788 45.9548H58.6589Z" fill="#E1147B"/>
<path d="M23.2861 48.1764C23.8995 48.1764 24.3969 47.6791 24.3969 47.0656C24.3969 46.4522 23.8995 45.9548 23.2861 45.9548C22.6726 45.9548 22.1753 46.4522 22.1753 47.0656C22.1753 47.6791 22.6726 48.1764 23.2861 48.1764Z" fill="#E1147B"/>
<path d="M51.9944 41.9382C52.5925 41.9382 53.1052 42.4509 53.1052 43.049C53.1052 43.6471 52.5925 44.1598 51.9944 44.1598H20.1235C19.5254 44.1598 19.0127 43.6471 19.0127 43.049C19.0127 42.4509 19.5254 41.9382 20.1235 41.9382H51.9944Z" fill="#E1147B"/>
<path d="M16.2788 44.1598C16.8922 44.1598 17.3895 43.6625 17.3895 43.049C17.3895 42.4355 16.8922 41.9382 16.2788 41.9382C15.6653 41.9382 15.168 42.4355 15.168 43.049C15.168 43.6625 15.6653 44.1598 16.2788 44.1598Z" fill="#E1147B"/>
<path d="M23.2861 40.0587C23.8995 40.0587 24.3969 39.5614 24.3969 38.9479C24.3969 38.3345 23.8995 37.8372 23.2861 37.8372C22.6726 37.8372 22.1753 38.3345 22.1753 38.9479C22.1753 39.5614 22.6726 40.0587 23.2861 40.0587Z" fill="#E1147B"/>
<path d="M61.7369 37.8372C62.335 37.8372 62.8477 38.3498 62.8477 38.9479C62.8477 39.5461 62.335 40.0587 61.7369 40.0587H27.0463C26.4482 40.0587 25.9355 39.5461 25.9355 38.9479C25.9355 38.3498 26.4482 37.8372 27.0463 37.8372H61.7369Z" fill="#E1147B"/>
</svg>
