<svg width="80" height="80" viewBox="0 0 80 80" fill="none" xmlns="http://www.w3.org/2000/svg">
<circle cx="40" cy="40" r="40" fill="#142477"/>
<circle cx="40" cy="40" r="32" fill="#1F293D"/>
<g clip-path="url(#clip0_5658_131027)">
<mask id="mask0_5658_131027" style="mask-type:luminance" maskUnits="userSpaceOnUse" x="17" y="17" width="46" height="46">
<path d="M62.528 17.728H17.728V62.528H62.528V17.728Z" fill="white"/>
</mask>
<g mask="url(#mask0_5658_131027)">
<path fill-rule="evenodd" clip-rule="evenodd" d="M57.978 26.618C54.583 22.278 49.613 19.513 44.118 19.513C33.478 19.513 25.673 29.418 25.673 40.128C25.673 47.583 30.643 53.183 36.138 53.183C36.663 53.183 37.153 53.148 37.678 53.043C33.968 50.348 31.623 45.448 31.623 40.128C31.623 31.658 37.363 25.043 44.118 25.043C51.503 25.043 56.613 32.358 56.613 40.128C56.578 45.868 54.548 51.573 50.943 55.773C47.793 59.448 43.733 61.758 39.253 62.493C39.253 62.493 39.638 62.528 40.128 62.528C52.483 62.528 62.528 52.483 62.528 40.128C62.528 35.053 60.848 30.363 57.978 26.618ZM54.583 40.128C54.583 32.673 49.613 27.073 44.118 27.073C43.593 27.073 43.103 27.108 42.578 27.213C46.288 29.908 48.633 34.808 48.633 40.128C48.633 48.598 42.893 55.213 36.138 55.213C28.753 55.213 23.643 47.898 23.643 40.128C23.678 34.388 25.708 28.683 29.313 24.483C32.463 20.808 36.523 18.498 41.003 17.763C41.003 17.763 40.618 17.728 40.128 17.728C27.773 17.728 17.728 27.773 17.728 40.128C17.728 45.203 19.408 49.893 22.278 53.638C25.673 57.978 30.643 60.708 36.138 60.708C46.778 60.743 54.583 50.838 54.583 40.128Z" fill="#0089DB"/>
</g>
</g>
<defs>
<clipPath id="clip0_5658_131027">
<rect width="44.8" height="44.8" fill="white" transform="translate(17.728 17.728)"/>
</clipPath>
</defs>
</svg>
