<?xml version="1.0" encoding="UTF-8"?>
<svg width="80px" height="80px" viewBox="0 0 80 80" version="1.1" xmlns="http://www.w3.org/2000/svg" xmlns:xlink="http://www.w3.org/1999/xlink">
    <title>polkadotjs</title>
    <g id="Page-1" stroke="none" stroke-width="1" fill="none" fill-rule="evenodd">
        <g id="polkadotjs" fill-rule="nonzero">
            <circle id="Oval" fill="#142477" cx="40" cy="40" r="40"></circle>
            <circle id="Oval" fill="#FF0420" cx="40" cy="40" r="32"></circle>
            <path d="M33.4984744,31 C34.739142,31 35.8508739,31.2046055 36.8337989,31.6138165 C37.816724,32.0072984 38.5900803,32.6055115 39.1539966,33.4083302 C39.717913,34.1952938 40,35.1398012 40,36.2416006 C40,36.5721656 39.9596835,36.9893041 39.8790504,37.4930162 C39.6374087,38.8939222 39.3473357,40.2555681 39.0089601,41.5777023 C38.4450438,43.7342393 37.4702335,45.3476784 36.0845295,46.4180194 C34.6988254,47.4726312 32.845939,48 30.5256124,48 C28.6081937,48 27.0372654,47.5592047 25.8126987,46.67774 C24.6042329,45.7805461 24,44.5055996 24,42.8527746 C24,42.5064804 24.0403165,42.0814144 24.1208208,41.5777023 C24.3303896,40.4444444 24.6284486,39.0827985 25.0151268,37.4930162 C26.1107578,33.1643387 28.9385833,31 33.4984744,31 Z M51.2166253,31 C52.9563111,31 54.3511921,31.3723648 55.4012682,32.1170944 C56.4671312,32.8619535 57,33.9385369 57,35.3471035 C57,35.7518253 56.9530153,36.1728551 56.8589207,36.609934 C56.4671312,38.4718874 55.6756587,39.848097 54.4845033,40.7385627 C53.3090094,41.6290285 51.694616,42.0742613 49.6414485,42.0742613 L46.4676651,42.0742613 L45.3862659,47.3928525 C45.3548175,47.5709457 45.2686163,47.7165523 45.1276622,47.8299314 C44.9865829,47.9433105 44.8376102,48 44.6809946,48 L41.4836563,48 C41.3112539,48 41.1779427,47.9433105 41.0839733,47.8299314 C41.0055403,47.7003738 40.9821106,47.5547671 41.0134337,47.3928525 L44.2577567,31.6071475 C44.2890798,31.4290543 44.375281,31.2833182 44.5163603,31.1699392 C44.6574396,31.0566895 44.8062871,31 44.963028,31 L51.2166253,31 Z M33.6830016,35 C32.7723204,35 31.9918852,35.2546262 31.3414358,35.7638786 C30.7073646,36.2732544 30.2520241,37.0525537 29.9756741,38.1018998 C29.6829459,39.1358253 29.3902176,40.4013077 29.0976194,41.8982235 C29.0324965,42.2067604 29,42.5308414 29,42.870343 C29,44.2901554 29.7805653,45 31.3414358,45 C32.2521169,45 33.0243631,44.7453738 33.6585642,44.2361214 C34.3090136,43.726869 34.7724133,42.9475697 35.0487633,41.8982235 C35.4227327,40.4475697 35.7074018,39.1820873 35.9025106,38.1018998 C35.9675035,37.7778189 36,37.4460893 36,37.1064643 C36,35.7021959 35.2276239,35 33.6830016,35 Z M51.0686642,35 L47.9784995,35 L47,39 L49.9614364,39 C50.6823422,39 51.3089661,38.8286242 51.8411711,38.4859916 C52.3905306,38.143359 52.7510522,37.6517403 52.9227356,37.0111353 C52.9741995,36.757823 53,36.5344032 53,36.3407568 C53,35.9086849 52.8541171,35.5809391 52.5622141,35.3575193 C52.2703111,35.1190937 51.7725526,35 51.0686642,35 Z" id="Combined-Shape" fill="#FFFFFF"></path>
        </g>
    </g>
</svg>