<?xml version="1.0" encoding="UTF-8"?>
<svg width="80px" height="80px" viewBox="0 0 80 80" version="1.1" xmlns="http://www.w3.org/2000/svg" xmlns:xlink="http://www.w3.org/1999/xlink">
    <title>oasis-network-rose-logo</title>
    <g id="Page-1" stroke="none" stroke-width="1" fill="none" fill-rule="evenodd">
        <g id="oasis-network-rose-logo" fill-rule="nonzero">
            <circle id="Oval" fill="#142477" cx="40" cy="40" r="40"></circle>
            <circle id="Oval" fill="#FFFFFF" cx="40" cy="40" r="32"></circle>
            <path d="M63.1670337,39.9941648 L63.1670337,40.0333981 C63.156451,42.9429437 61.9976011,45.7300227 59.9436721,47.7851434 C57.8896972,49.8402183 55.1078432,50.9961349 52.2063184,51.0000322 C50.1639394,51.001039 48.1537353,50.4897682 46.358673,49.5127391 C46.1537521,49.4018683 45.9541938,49.28426 45.7451938,49.1611975 C45.4740897,48.9970683 45.239423,48.7789475 45.0556772,48.52031 C44.8719314,48.2616267 44.7430481,47.9679726 44.6769564,47.6573601 C44.6108648,47.3467934 44.6089856,47.0259601 44.6714564,46.7146143 C44.7338814,46.4032685 44.8593272,46.1081019 45.0400481,45.8473102 L49.7442894,39.0626023 C49.9994436,38.6945148 50.3899435,38.443119 50.8299435,38.3637357 C51.2698976,38.2843982 51.7232809,38.3835357 52.0903601,38.6393774 C52.4574392,38.8952648 52.7081475,39.2868648 52.7872559,39.7280564 C52.86641,40.1692481 52.7675475,40.6239147 52.5123934,40.9920022 L48.4849728,46.799131 C49.6521644,47.3367101 50.921931,47.6134976 52.2063184,47.6103809 C54.2154224,47.6079059 56.1417973,46.807656 57.5640972,45.3847144 C58.9863971,43.961727 59.7888471,42.0318688 59.7959971,40.0171731 L59.7959971,39.9860523 C59.7991137,38.0132024 59.0371346,36.1164817 57.6710264,34.6967485 C56.3169723,33.2778173 54.4593933,32.4518503 52.5016226,32.3982344 C47.2512771,32.2441015 44.6665522,36.2583817 41.6746441,40.908173 L41.658465,40.9338397 C38.6193485,45.6553144 35.1865696,50.9946224 28.2980033,50.9946224 C28.1631617,50.9946224 28.0283659,50.9946224 27.9015909,50.9946224 C25.0605202,50.9146432 22.3654746,49.7146808 20.4009297,47.6550226 C18.4276123,45.6070977 17.3273651,42.8689687 17.3334879,40.0212064 L17.3334879,39.9847231 C17.3442007,37.0751316 18.5031182,34.2881443 20.5569418,32.2328815 C22.6107746,30.1776417 25.3924452,29.0213327 28.29397,29.0167068 C30.3363032,29.0162609 32.3463697,29.5275005 34.1416155,30.5039841 C34.3479113,30.614855 34.5542071,30.7324816 34.7550946,30.8555212 C35.0262904,31.0195358 35.2610945,31.2375833 35.4449779,31.4961887 C35.6288154,31.7547941 35.7578362,32.048462 35.8240653,32.3590424 C35.8902945,32.6696273 35.8922653,32.9905294 35.829932,33.3019165 C35.7675987,33.6132944 35.6422445,33.9085527 35.4616154,34.169436 L30.755999,40.9541439 C30.6318824,41.141648 30.4717407,41.3024313 30.2848324,41.4270522 C30.0979699,41.5516272 29.8881449,41.6375647 29.6677324,41.6797771 C29.4472741,41.7219896 29.2206741,41.7196063 29.0011325,41.6728105 C28.7816366,41.6260147 28.573645,41.535723 28.389395,41.4072063 C28.205145,41.2787355 28.0483492,41.1146522 27.9281742,40.9245814 C27.808045,40.7345105 27.7269201,40.5223022 27.6896576,40.3003772 C27.6523951,40.0784523 27.6596826,39.8513023 27.7111534,39.6322648 C27.7625784,39.4131815 27.8571325,39.2066565 27.98927,39.024744 L32.0166448,33.2175923 C30.8490407,32.6799307 29.5788158,32.4031294 28.29397,32.4063469 C26.2849576,32.4099036 24.3589953,33.2106715 22.9368787,34.6336818 C21.5147896,36.056715 20.7121334,37.9863441 20.7043005,40.0009481 L20.7043005,40.0306939 C20.7027422,41.9989605 21.4642309,43.890777 22.827887,45.3064769 C24.181712,46.7257518 26.0394743,47.5518059 27.9973367,47.6049726 L28.2872325,47.6049726 C33.3433822,47.6049726 35.886307,43.6528562 38.8243151,39.0869398 L38.8391193,39.0612273 C41.9402483,34.2492318 45.4458564,28.7963191 52.5919601,29.00589 C55.4328474,29.0849279 58.1278472,30.2850704 60.0912554,32.3455032 C62.0711177,34.3958068 63.1747843,37.1401691 63.1670337,39.9941648 L63.1670337,39.9941648 Z" id="Path" fill="#6666FF"></path>
        </g>
    </g>
</svg>