<svg viewBox="0 0 56 56" fill="none" xmlns="http://www.w3.org/2000/svg">
<path d="M28.0956 45.9807C31.2564 47.962 34.8705 49.1032 38.5956 49.2964C48.7176 50.0734 52.5956 47.7354 54.0703 46.0927C54.197 45.9537 54.288 45.7861 54.3358 45.6044C54.3837 45.4226 54.3869 45.232 54.3452 45.0486C54.3036 44.8652 54.2182 44.6948 54.0964 44.5516C53.9746 44.4083 53.8199 44.2968 53.6456 44.2261C49.9429 42.4287 46.4587 40.2113 43.2623 37.6181C42.476 37.0254 41.2253 36.0267 40.138 35.1611C39.9821 35.0374 39.8605 34.8759 39.7847 34.6921C39.7089 34.508 39.6813 34.3078 39.7047 34.1101C39.7282 33.9125 39.8017 33.7242 39.9184 33.5632C40.0351 33.402 40.1909 33.2734 40.3713 33.1894C48.188 29.5727 53.228 22.3931 54.6956 12.4461C54.7248 12.2486 54.7029 12.047 54.6319 11.8604C54.5608 11.6739 54.4432 11.5087 54.2901 11.3806C54.137 11.2526 53.9536 11.1659 53.7574 11.129C53.5612 11.0921 53.3589 11.1061 53.1696 11.1697C49.1446 12.5184 39.5103 16.0067 38.5886 18.7671C37.723 21.3664 35.5693 26.4671 34.517 28.9357C34.447 29.0988 34.3408 29.2437 34.2062 29.3595C34.0718 29.4754 33.9126 29.559 33.7409 29.604C33.5692 29.649 33.3895 29.6542 33.2154 29.6192C33.0414 29.5844 32.8778 29.5102 32.7366 29.4024C29.7112 26.7265 26.1324 24.7514 22.2554 23.6181C21.2692 23.3644 20.2374 23.3451 19.2424 23.5611C18.2473 23.7772 17.3165 24.2229 16.5243 24.8624C15.7321 25.5022 15.1003 26.3182 14.6795 27.2455C14.2586 28.1725 14.0603 29.1854 14.1004 30.2027C14.0845 30.4617 13.9827 30.7081 13.811 30.9027C13.0557 31.7059 12.6336 32.7659 12.6304 33.8684C12.6296 34.0478 12.6702 34.2252 12.7491 34.3864C12.8281 34.5476 12.9431 34.6886 13.0854 34.798C13.2276 34.9074 13.3932 34.9828 13.5692 35.0178C13.7453 35.0528 13.927 35.0467 14.1004 35.0001L17.6004 34.1251" stroke="#0085FF" stroke-width="2" stroke-linecap="round" stroke-linejoin="round"/>
<path d="M21.1073 36.4629L26.9405 37.6296L21.1073 50.4629L1.27393 45.7962L7.10726 32.9629L12.7656 34.3769" stroke="#0085FF" stroke-width="2" stroke-linecap="round" stroke-linejoin="round"/>
<path d="M7.10742 32.9629L12.9408 42.2962L26.9407 37.6296" stroke="#0085FF" stroke-width="2" stroke-linecap="round" stroke-linejoin="round"/>
<path d="M20.5335 29.4631C20.2114 29.4631 19.9502 29.202 19.9502 28.8797C19.9502 28.5575 20.2114 28.2964 20.5335 28.2964" stroke="#0085FF" stroke-width="2"/>
<path d="M20.5332 29.4631C20.8554 29.4631 21.1165 29.202 21.1165 28.8797C21.1165 28.5575 20.8554 28.2964 20.5332 28.2964" stroke="#0085FF" stroke-width="2"/>
<path d="M29.2741 26.9453C29.2741 26.9453 28.1074 17.612 28.1074 12.9453C28.1074 10.3133 32.7251 5.04467 35.0164 2.59001C35.1536 2.44347 35.3261 2.33474 35.5174 2.27435C35.7087 2.21394 35.9124 2.2039 36.1087 2.24518C36.3049 2.28647 36.4874 2.37767 36.6381 2.51002C36.7891 2.64237 36.9032 2.81135 36.9694 3.00067C38.0633 6.20163 38.6154 9.56268 38.6028 12.9453" stroke="#0085FF" stroke-width="2" stroke-linecap="round" stroke-linejoin="round"/>
<path d="M40.3877 49.4504L43.274 53.7788" stroke="#0085FF" stroke-width="2" stroke-linecap="round" stroke-linejoin="round"/>
<path d="M47.1685 49.1189L50.2741 53.7786" stroke="#0085FF" stroke-width="2" stroke-linecap="round" stroke-linejoin="round"/>
</svg>
