<?xml version="1.0" encoding="UTF-8"?>
<svg width="80px" height="80px" viewBox="0 0 80 80" version="1.1" xmlns="http://www.w3.org/2000/svg" xmlns:xlink="http://www.w3.org/1999/xlink">
    <title>hydradx</title>
    <g id="Page-1" stroke="none" stroke-width="1" fill="none" fill-rule="evenodd">
        <g id="hydradx" fill-rule="nonzero">
            <circle id="Oval" fill="#142477" cx="40" cy="40" r="40"></circle>
            <circle id="Oval" fill="#1F293D" cx="40" cy="40" r="32"></circle>
            <path d="M40,54 C44.9705627,54 49,56.4624339 49,59.5 C49,62.5375661 44.9705627,65 40,65 C35.0294373,65 31,62.5375661 31,59.5 C31,56.4624339 35.0294373,54 40,54 Z M52.2966494,47.6113517 C54.7366773,43.3852235 58.7072336,41.109687 61.1651352,42.5287988 C63.6230367,43.9479105 63.6375262,48.5242818 61.1974984,52.75041 C58.7574705,56.9765383 54.7869142,59.2520747 52.3290126,57.832963 C49.8711111,56.4138512 49.8566216,51.83748 52.2966494,47.6113517 Z M18.7967164,42.5276278 C21.2562798,41.1075565 25.2281833,43.3823152 27.6682112,47.6084434 C30.1082391,51.8345717 30.0924023,56.4117207 27.6328389,57.831792 C25.1732755,59.2518633 21.2013719,56.9771046 18.7613441,52.7509764 C16.3213162,48.5248481 16.3371529,43.9476991 18.7967164,42.5276278 Z M18.760114,28.2492495 C21.2001419,24.0231212 25.1720454,21.7483626 27.6316089,23.1684338 C30.0911723,24.5885051 30.107009,29.1656542 27.6669812,33.3917824 C25.2269533,37.6179107 21.2550498,39.8926693 18.7954863,38.4725981 C16.3359229,37.0525268 16.3200862,32.4753777 18.760114,28.2492495 Z M52.331094,23.1695631 C54.7889955,21.7504514 58.7595519,24.0259878 61.1995797,28.2521161 C63.6396076,32.4782443 63.6251181,37.0546156 61.1672165,38.4737273 C58.7093149,39.8928391 54.7387586,37.6173026 52.2987308,33.3911744 C49.8587029,29.1650461 49.8731924,24.5886749 52.331094,23.1695631 Z M40,16 C44.9705627,16 49,18.4624339 49,21.5 C49,24.5375661 44.9705627,27 40,27 C35.0294373,27 31,24.5375661 31,21.5 C31,18.4624339 35.0294373,16 40,16 Z" id="Combined-Shape" fill="#E6007A"></path>
        </g>
    </g>
</svg>