<svg viewBox="0 0 64 64" xmlns="http://www.w3.org/2000/svg"><g fill="none" fill-rule="evenodd"><path fill="#0085FF" d="M0 0h64v64H0z"/><path d="M28.2 44.6h5.4V50h-5.4v-5.4ZM31.8 14c9.63.396 13.824 10.116 8.1 17.406-1.494 1.8-3.906 2.988-5.094 4.5C33.6 37.4 33.6 39.2 33.6 41h-5.4c0-3.006 0-5.544 1.206-7.344 1.188-1.8 3.6-2.862 5.094-4.05 4.356-4.032 3.276-9.738-2.7-10.206-1.4322 0-2.8057.5689-3.8184 1.5816C26.9689 21.9943 26.4 23.3678 26.4 24.8H21c0-2.8643 1.1379-5.6114 3.1632-7.6368C26.1886 15.1379 28.9357 14 31.8 14Z" fill="#FFF" fill-rule="nonzero"/></g></svg>