<svg width="64" height="64" viewBox="0 0 64 64" fill="none" xmlns="http://www.w3.org/2000/svg">
<circle cx="32" cy="32" r="32" fill="#0085FF"/>
<path d="M28.2 44.6H33.6V50H28.2V44.6ZM31.8 14C41.43 14.396 45.624 24.116 39.9 31.406C38.406 33.206 35.994 34.394 34.806 35.906C33.6 37.4 33.6 39.2 33.6 41H28.2C28.2 37.994 28.2 35.456 29.406 33.656C30.594 31.856 33.006 30.794 34.5 29.606C38.856 25.574 37.776 19.868 31.8 19.4C30.3678 19.4 28.9943 19.9689 27.9816 20.9816C26.9689 21.9943 26.4 23.3678 26.4 24.8H21C21 21.9357 22.1379 19.1886 24.1632 17.1632C26.1886 15.1379 28.9357 14 31.8 14V14Z" fill="white"/>
</svg>
