<svg viewBox="0 0 20 20" xmlns="http://www.w3.org/2000/svg"><path d="M6.70580005 1.79217c.16274-.97643 1.00755-1.69209 1.9974-1.69209H11.2972c.9899 0 1.8347.71566 1.9975 1.69209l.2135 1.28105c.0102.06138.0611.15726.1922.22981.084.04654.1672.09462.2492.14419.1282.07736.2367.07358.295.05172l1.2169-.45588c.927-.34728 1.9691.02652 2.4641.8838l1.297 2.24643c.4949.85728.2975 1.94671-.4667 2.57591l-1.0043.8268c-.0482.0397-.1055.1314-.1027.2799.0009.048.0013.096.0013.1442 0 .0481-.0004.0962-.0013.1441-.0028.1485.0545.2403.1027.28l1.0043.8268c.7642.6291.9616 1.7186.4667 2.5759l-1.297 2.2464c-.495.8573-1.5371 1.2311-2.4641.8838l-1.2169-.4559c-.0583-.0219-.1668-.0256-.2949.0517-.0821.0496-.1653.0977-.2493.1442-.1311.0726-.182.1685-.1922.2298l-.2135 1.2811c-.1628.9764-1.0076 1.6921-1.9975 1.6921H8.70320005c-.98985 0-1.83466-.7157-1.9974-1.6921l-.21351-1.2811c-.01023-.0613-.06113-.1572-.19219-.2298-.08408-.0465-.16719-.0946-.24928-.1442-.12812-.0773-.23662-.0735-.29497-.0517l-1.21687.4559c-.92698.3473-1.96917-.0265-2.46412-.8838l-1.29698-2.2464c-.49495-.8573-.29757-1.9468.46667-2.5759l1.00435-.8268c.04818-.0397.10541-.1314.10266-.28-.00089-.0479-.00133-.096-.00133-.1441 0-.0482.00044-.0962.00133-.1441.00275-.1486-.05448-.2403-.10266-.28l-1.00435-.8268c-.76424-.6292-.96162-1.71861-.46667-2.57589l1.29698-2.24644c.49495-.85728 1.53714-1.23107 2.46412-.88379l1.21685.45587c.05836.02186.16685.02564.29497-.05172.0821-.04958.16521-.09766.2493-.1442.13106-.07255.18196-.16843.19219-.22981l.21351-1.28105Zm1.9974.10791c-.1099 0-.2038.07952-.2219.18801l-.2135 1.28105c-.1145.68671-.5635 1.21397-1.09597 1.50872-.06427.03557-.12781.07233-.19058.11023-.52195.31518-1.20413.44101-1.8569.19646l-1.21685-.45588c-.103-.03859-.2188.00295-.27379.0982l-1.29698 2.24644c-.055.09525-.03307.2163.05185.28621l1.00435.82678c.53683.442.7696 1.0939.75832 1.703-.00068.0368-.00102.0738-.00102.1108 0 .037.00034.0739.00102.1108.01128.6091-.22148 1.261-.75832 1.7029l-1.00435.8269c-.08492.0699-.10685.1909-.05185.2862l1.29698 2.2464c.05499.0953.17079.1368.27379.0982l1.21687-.4559c.65277-.2445 1.33494-.1187 1.85689.1965.06277.0379.1263.0746.19057.1102.53247.2948.98147.822 1.09597 1.5087l.2135 1.2811c.0181.1085.112.188.2219.188H11.2972c.11 0 .2039-.0795.2219-.188l.2136-1.2811c.1144-.6867.5635-1.2139 1.0959-1.5087.0643-.0356.1278-.0723.1906-.1102.522-.3152 1.2041-.441 1.8569-.1965l1.2169.4559c.103.0386.2188-.003.2737-.0982l1.297-2.2464c.055-.0953.0331-.2163-.0518-.2863l-1.0044-.8268c-.5368-.4419-.7696-1.0938-.7583-1.7029.0007-.0369.001-.0738.001-.1108 0-.037-.0003-.074-.001-.1108-.0113-.6091.2215-1.261.7583-1.703l1.0044-.8268c.0849-.0699.1068-.19095.0518-.28621l-1.297-2.24643c-.0549-.09526-.1707-.13679-.2737-.0982l-1.2169.45588c-.6528.24455-1.3349.11872-1.8569-.19645-.0628-.03791-.1263-.07466-.1906-.11023-.5324-.29475-.9815-.82201-1.0959-1.50872l-.2136-1.28105c-.018-.10849-.1119-.18801-.2219-.18801H8.70320005Zm1.2968 5.99992c-1.1598 0-2.1.9402-2.1 2.1 0 1.1598.9402 2.1 2.1 2.1C11.1598 12.1 12.1 11.1598 12.1 10c0-1.1598-.9402-2.1-2.09999995-2.1Zm-3.9 2.1c0-2.15391 1.74609-3.9 3.9-3.9C12.1539 6.1 13.9 7.84609 13.9 10c0 2.1539-1.7461 3.9-3.89999995 3.9-2.15391 0-3.9-1.7461-3.9-3.9Z" fill-rule="evenodd"/></svg>