<svg viewBox="0 0 18 24" xmlns="http://www.w3.org/2000/svg"><path d="M13.7222 6.75c.3796958 0 .693491.28215388.7431534.64822944L14.4722 7.5l.000016 3.2561655c1.5660175.1884736 2.7155167 1.4028903 2.7562256 2.956449l.0139464.6876407.0069215.7455309-.0002057.7121779-.007017.7194786-.0136442.667005c-.0407038 1.553238-1.1897991 2.7675324-2.7555185 2.956299L14.4722 22.5c0 .4142136-.3357864.75-.75.75-.3796958 0-.693491-.2821539-.7431534-.6482294L12.9722 22.5l.0001409-2.2991399c-1.5660117-.1883805-2.71557124-1.4028526-2.75628261-2.9563786l-.01364488-.6670316-.00701721-.7194856v-.758936l.00701722-.7194655.01364393-.6669088c.04070992-1.5535954 1.19020915-2.7680147 2.75647095-2.9564919L12.9722 7.5c0-.41421356.3357864-.75.75-.75Zm-9.44438-6c.37969577 0 .69349096.28215388.74315338.64822944L5.02782 1.5l-.00057446 3.24808786c1.56284056.13933621 2.68999456 1.35476766 2.73493637 2.89864105l.01889196.76379926.01862663 1.26677577.00538337.92642035-.00595354 1.73765731-.01105596.8325693-.02589191 1.1363713c-.04493275 1.5436276-1.17165034 2.7588598-2.73419607 2.8985844L5.02782 19.4785c0 .4142136-.33578644.75-.75.75-.37969577 0-.69349096-.2821539-.74315338-.6482294L3.52782 19.4785l-.00052822-2.2696081C1.96496861 17.0691231.83828907 15.853908.79335725 14.3103123l-.02643507-1.170333-.01107236-.8606401L.75 10.9785l.00641871-1.36236608.0184844-1.22629121.01845446-.7430958c.04493258-1.54355634 1.1716184-2.75879821 2.73409519-2.89857329L3.52782 1.5c0-.41421356.33578644-.75.75-.75Zm9.797054 11.4809246h-.7049414c-.9593862.0136024-1.6318146.6594887-1.654391 1.5210609l-.017572.9963689L11.6945 15.4785l.0034696.7301417.017573.9965107c.0225757.8614763.6950331 1.5073904 1.6540834 1.5209222h.7049956c.9593027-.0135318 1.6317601-.6594459 1.6543367-1.5209561l.0133125-.651075.0068541-.7030798.0001928-.7004633-.0067578-.7276924-.0136025-.670862c-.0225754-.8615327-.6950038-1.507419-1.6540834-1.5210214ZM4.27778 6.22852c-.17321665 0-.34107734.00239709-.50368563.00703935-.86482957.02489937-1.45740846.63162312-1.48137166 1.45482427l-.02549559 1.12032917-.01438485 1.25470979-.00284285.91214252.00577549 1.2870621.01091465.8490015.0260329 1.1530491c.02396316.8232347.6165284 1.4299329 1.48119047 1.4548277.16183361.0046201.32978391.0069945.50386707.0069945.17407443 0 .34202457-.0023744.50367563-.0069893.8648464-.0248999 1.45739853-.6315906 1.48136242-1.4548505.003408-.1169846.00663169-.2364377.00966389-.3583703l.02192616-1.1646383.00829928-.8516931.00237943-1.28541641-.00531134-.91451802-.01835684-1.2493538-.01860106-.75227718c-.02396358-.82321396-.61653544-1.42993445-1.4811792-1.45482851C4.61883459 6.230917 4.45098442 6.22852 4.27778 6.22852Z" fill-rule="nonzero"/></svg>