<svg width="24" height="24" viewBox="0 0 24 24" xmlns="http://www.w3.org/2000/svg">
<path fill-rule="evenodd" clip-rule="evenodd" d="M6.49555 17.8953C6.09839 17.4981 6.09839 16.8542 6.49555 16.457L9.62472 13.3279C10.0219 12.9307 10.6658 12.9307 11.0629 13.3279C11.4601 13.725 11.4601 14.3689 11.0629 14.7661L8.65289 17.1762L11.0629 19.5862C11.4601 19.9834 11.4601 20.6273 11.0629 21.0244C10.6658 21.4216 10.0219 21.4216 9.62472 21.0244L6.49555 17.8953Z"/>
<path fill-rule="evenodd" clip-rule="evenodd" d="M6.19768 17.1763C6.19768 16.6146 6.653 16.1593 7.21466 16.1593H19.7314C19.7936 16.1593 19.8533 16.1346 19.8973 16.0905C19.9413 16.0465 19.966 15.9868 19.966 15.9246V13.4213C19.966 12.8596 20.4214 12.4043 20.983 12.4043C21.5447 12.4043 22 12.8596 22 13.4213V15.9246C22 16.5263 21.761 17.1033 21.3355 17.5288C20.9101 17.9542 20.333 18.1932 19.7314 18.1932H7.21466C6.653 18.1932 6.19768 17.7379 6.19768 17.1763Z"/>
<path fill-rule="evenodd" clip-rule="evenodd" d="M14.6314 11.0109C14.2342 10.6138 14.2342 9.96984 14.6314 9.57269L17.0414 7.16263L14.6314 4.75256C14.2342 4.35541 14.2342 3.71149 14.6314 3.31434C15.0285 2.91719 15.6724 2.91719 16.0696 3.31434L19.1988 6.44351C19.5959 6.84067 19.5959 7.48458 19.1988 7.88174L16.0696 11.0109C15.6724 11.4081 15.0285 11.4081 14.6314 11.0109Z"/>
<path d="M7.42388 5.38965C7.42388 6.88741 6.20971 8.10159 4.71194 8.10159C3.21418 8.10159 2 6.88741 2 5.38965C2 3.89188 3.21418 2.6777 4.71194 2.6777C6.20971 2.6777 7.42388 3.89188 7.42388 5.38965Z"/>
<path d="M3.69496 9.32934V10.9177C3.69496 11.4794 4.15028 11.9347 4.71194 11.9347C5.2736 11.9347 5.72892 11.4794 5.72892 10.9177V9.32934C5.40387 9.413 5.0631 9.45749 4.71194 9.45749C4.36078 9.45749 4.02001 9.413 3.69496 9.32934Z"/>
<path d="M7.6722 8.17972L18.4803 8.17971C19.042 8.17971 19.4973 7.7244 19.4973 7.16274C19.4973 6.60107 19.042 6.14576 18.4803 6.14576L8.7097 6.14576C8.56324 6.92488 8.19464 7.62562 7.6722 8.17972Z"/>
</svg>
