<svg xmlns="http://www.w3.org/2000/svg" fill="none" viewBox="0.49 0.69 11.55 14.18">
<path d="M0.716797 3.84375C0.417969 4.13672 0.423828 4.58203 0.716797 4.86914L3.74023 7.81641C3.86914 7.94531 4.06836 8.0332 4.24414 8.0332C4.64258 8.0332 4.92383 7.74609 4.92383 7.34766C4.92383 7.16016 4.85938 6.99609 4.73047 6.87305L3.48242 5.67188L2.70898 5.00391L3.88672 5.04492H11.3574C11.75 5.04492 12.043 4.75195 12.043 4.35938C12.043 3.96094 11.75 3.66797 11.3574 3.66797H3.88672L2.70898 3.70898L3.48242 3.04102L4.73047 1.8457C4.85938 1.7168 4.92383 1.55273 4.92383 1.36523C4.92383 0.966797 4.64258 0.685547 4.24414 0.685547C4.06836 0.685547 3.86914 0.767578 3.74023 0.896484L0.716797 3.84375ZM11.8203 11.707C12.1191 11.4141 12.1191 10.9629 11.8203 10.6816L8.79688 7.73438C8.66797 7.59961 8.46875 7.51758 8.29883 7.51758C7.89453 7.51758 7.61328 7.80469 7.61328 8.20312C7.61328 8.39062 7.67773 8.55469 7.8125 8.67773L9.05469 9.87891L9.82812 10.5469L8.65039 10.5059H1.18555C0.787109 10.5059 0.494141 10.793 0.494141 11.1914C0.494141 11.5898 0.787109 11.8828 1.18555 11.8828H8.65039L9.82812 11.8418L9.05469 12.5098L7.8125 13.7051C7.67773 13.834 7.61328 13.9922 7.61328 14.1855C7.61328 14.584 7.89453 14.8652 8.29883 14.8652C8.46875 14.8652 8.66797 14.7832 8.79688 14.6543L11.8203 11.707Z" fill="white"/>
</svg>