<svg width="14" height="15" viewBox="0 0 14 15" xmlns="http://www.w3.org/2000/svg"><path d="M13.0001 7.67314c.3796958 0 .693491.28215388.7431534.64822944L13.7501 8.42314v1.84616c0 .44371035-.1763162.8692764-.4900699 1.1830301-.2745345.2745345-.6346753.4438434-1.0176722.481881L12.077 11.9424l-7.421-.00056 1.02822009 1.0278299c.26626656.2662666.29047261.6829303.07261815.9765418l-.07261815.0841184c-.26626657.2662665-.68293025.2904726-.97654174.0726181l-.08411844-.0726181-2.3077-2.3077-.06339799-.0719275a.7524731.7524731 0 0 1-.01170935-.0155588l.07510734.0874863c-.03303199-.033032-.06233869-.0683786-.08792009-.1055177-.01736516-.0252266-.03332304-.051741-.04762582-.0792537-.00430946-.0082877-.00861949-.0169908-.01275023-.0257573-.01182413-.0250403-.0222094-.0506152-.03118162-.0768454-.00294743-.0088593-.00565795-.0173042-.00821509-.0257855-.00869358-.0284267-.01578079-.0582449-.02103238-.0886914-.00697979-.0408418-.01064184-.0820436-.01092666-.1232644C2.0961956 11.1957828 2.09619 11.194092 2.09619 11.1924c0-.038788.00294449-.0768884.00862214-.1140896.00150027-.0095667.00318834-.0193313.00507044-.0290657.00512429-.0266676.0115783-.0524151.01932256-.0775975.00419428-.0136196.00886069-.0274051.01393903-.0410724.0071999-.019296.01521381-.0383374.0239712-.05696.00658281-.0141919.01369406-.0281866.02127251-.0419932.01472916-.0265633.03078959-.0519879.04827124-.0763226.00186508-.0027993.0042095-.00601227.00658264-.00921065.0251194-.03311779.04801831-.05941859.07261815-.08401844l2.3077-2.3078c.29289322-.29289321.76776696-.29289321 1.06066018 0 .26626656.26626657.29047261.68293025.07261815.97654174l-.07261815.08411844L4.656 10.44184l7.421.00056c.0458413 0 .0898894-.01824958.1223699-.05073009.0216537-.02165367.0369825-.04844851.0447957-.07748837L12.2501 10.2693V8.42314c0-.41421356.3357864-.75.75-.75ZM9.29227773.89688886l.08411891.0726176 2.30783346 2.30807345c.0268619.02686191.0516956.05575196.0742519.08642075l-.0743554-.08679419c.0341816.03418107.064374.07084063.0905775.10940018.0152529.02275808.0295275.04643544.0424865.07091637.006274.0115985.0120676.02331538.0175366.03514541.0081568.01778013.0158135.03614964.0227444.0548713.0052784.01429143.0100333.02850819.014351.04282859.0208358.06858914.0320774.1417526.0320774.21754168 0 .07757225-.0117768.15239389-.03364.22277451-.0038069.01138796-.0075459.02248782-.0115518.03351253-.0081195.02310477-.0178394.04617007-.0286439.06861478-.0054226.010751-.0106955.02107452-.0162231.03129676-.0190914.03577843-.0413774.06997682-.0662131.10210406l-.0635026.07166204-2.30773001 2.30769c-.29289576.29289068-.76776949.29288657-1.06066017-.00000919-.26626426-.26626887-.2904667-.68293276-.07260969-.97654237l.07261888-.0841178L9.343 4.55784l-7.41992.00007c-.04591098 0-.08993456.01823474-.12238991.05069009-.0216369.0216369-.03695353.04841523-.04476052.07746661L1.75 4.73099v1.84616c0 .41421356-.33578644.75-.75.75-.37969577 0-.69349096-.28215388-.74315338-.64822944L.25 6.57715V4.73099c0-.44373121.17626681-.86928698.49002991-1.18305009.27454272-.27454271.6346767-.44381483 1.01768571-.48184313L1.92308 3.05791 9.343 3.05784 8.31574336 2.03017353c-.26626829-.26626483-.29047705-.68292835-.0726245-.97654126l.07261761-.0841189c.26626483-.2662683.68292835-.29047706.97654126-.07262451Z" fill="#C3C3E3" fill-rule="nonzero"/></svg>