<svg width="17" height="16" viewBox="0 0 17 16" fill="none" xmlns="http://www.w3.org/2000/svg">
<path d="M3.5 3.73169V3C3.5 1.96447 4.33947 1.125 5.375 1.125H11.625C12.6605 1.125 13.5 1.96447 13.5 3V3.73169M3.5 3.73169C3.69549 3.6626 3.90585 3.625 4.125 3.625H12.875C13.0941 3.625 13.3045 3.6626 13.5 3.73169M3.5 3.73169C2.77175 3.98909 2.25 4.68361 2.25 5.5V6.23169M13.5 3.73169C14.2282 3.98909 14.75 4.68361 14.75 5.5V6.23169M14.75 6.23169C14.5545 6.1626 14.3441 6.125 14.125 6.125H2.875C2.65585 6.125 2.44549 6.1626 2.25 6.23169M14.75 6.23169C15.4782 6.48909 16 7.18361 16 8V13C16 14.0355 15.1605 14.875 14.125 14.875H2.875C1.83947 14.875 1 14.0355 1 13V8C1 7.18361 1.52175 6.48909 2.25 6.23169" stroke-width="1.5" stroke-linecap="round" stroke-linejoin="round"/>
</svg>
