<svg width="24" height="24" viewBox="0 0 24 24" fill="none" xmlns="http://www.w3.org/2000/svg">
<path fill-rule="evenodd" clip-rule="evenodd" d="M19.4053 7.2565H6.52859C6.3748 7.28625 6.21632 7.28164 6.06452 7.24299C5.91271 7.20435 5.77134 7.13262 5.65051 7.03295C5.52969 6.93328 5.43241 6.80814 5.36564 6.66648C5.29887 6.52483 5.26426 6.37016 5.2643 6.21357V6.19339L18.8741 5.66343V4.3996C18.8963 4.21103 18.8753 4.01989 18.8128 3.84061C18.7502 3.66133 18.6478 3.4986 18.5131 3.3647C18.3784 3.2308 18.2151 3.12924 18.0354 3.06769C17.8557 3.00613 17.6644 2.98619 17.4759 3.00938L5.39179 4.9731C4.98395 5.1236 4.63198 5.39529 4.38317 5.75166C4.13437 6.10802 4.00065 6.53199 4 6.96656V14.3078C4.07224 14.3049 4.14484 14.3035 4.21779 14.3035C7.16853 14.3035 9.56057 16.6955 9.56057 19.6463C9.56057 19.7651 9.55669 19.8831 9.54905 20H19.4053C19.828 20 20.2333 19.8322 20.5322 19.5334C20.831 19.2346 20.9989 18.8294 20.9989 18.4069V8.83789L21 8.79434C21 8.38592 20.8377 7.99422 20.5488 7.70542C20.2599 7.41662 19.868 7.25438 19.4595 7.25438L19.4032 7.25544L19.4053 7.2565ZM17.8116 14.6908C17.3888 14.6907 16.9834 14.5227 16.6845 14.2237C16.3857 13.9247 16.2178 13.5193 16.218 13.0967C16.2181 12.674 16.3862 12.2688 16.6853 11.97C16.9844 11.6712 17.3899 11.5035 17.8127 11.5036C18.0221 11.5037 18.2293 11.545 18.4227 11.6251C18.6161 11.7053 18.7918 11.8227 18.9398 11.9708C19.0878 12.1188 19.2052 12.2945 19.2852 12.4879C19.3653 12.6812 19.4064 12.8885 19.4064 13.0978C19.4063 13.307 19.365 13.5142 19.2848 13.7076C19.2046 13.9009 19.0871 14.0765 18.9391 14.2244C18.791 14.3724 18.6152 14.4897 18.4217 14.5697C18.2283 14.6497 18.021 14.6909 17.8116 14.6908Z" fill="black"/>
<path fill-rule="evenodd" clip-rule="evenodd" d="M4.21779 23.864C6.54721 23.864 8.43557 21.9757 8.43557 19.6463C8.43557 17.3168 6.54721 15.4285 4.21779 15.4285C1.88837 15.4285 0 17.3168 0 19.6463C0 21.9757 1.88837 23.864 4.21779 23.864ZM4.21779 16.9749C4.52845 16.9749 4.78029 17.2267 4.78029 17.5374V19.0838H6.32668C6.63734 19.0838 6.88918 19.3356 6.88918 19.6463C6.88918 19.9569 6.63734 20.2088 6.32668 20.2088H4.78029V21.7551C4.78029 22.0658 4.52845 22.3176 4.21779 22.3176C3.90713 22.3176 3.65529 22.0658 3.65529 21.7551V20.2088H2.10889C1.79823 20.2088 1.54639 19.9569 1.54639 19.6463C1.54639 19.3356 1.79823 19.0838 2.10889 19.0838H3.65529V17.5374C3.65529 17.2267 3.90713 16.9749 4.21779 16.9749Z" fill="black"/>
</svg>
