<svg viewBox="0 0 25 25" fill="none" xmlns="http://www.w3.org/2000/svg">
<path d="M20.4053 7.2565H7.52859C7.3748 7.28625 7.21632 7.28164 7.06452 7.24299C6.91271 7.20435 6.77134 7.13262 6.65051 7.03295C6.52969 6.93328 6.43241 6.80814 6.36564 6.66648C6.29887 6.52483 6.26426 6.37016 6.2643 6.21357V6.19339L19.8741 5.66343V4.3996C19.8963 4.21103 19.8753 4.01989 19.8128 3.84061C19.7502 3.66133 19.6478 3.4986 19.5131 3.3647C19.3784 3.2308 19.2151 3.12924 19.0354 3.06769C18.8557 3.00613 18.6644 2.98619 18.4759 3.00938L6.39179 4.9731C5.98395 5.1236 5.63198 5.39529 5.38317 5.75166C5.13436 6.10802 5.00065 6.53199 5 6.96656V18.4069C5 18.8294 5.1679 19.2346 5.46677 19.5334C5.76564 19.8322 6.17099 20 6.59365 20H20.4053C20.8279 20 21.2333 19.8322 21.5322 19.5334C21.831 19.2346 21.9989 18.8294 21.9989 18.4069V8.83789L22 8.79435C22 8.38592 21.8377 7.99422 21.5488 7.70542C21.2599 7.41662 20.868 7.25438 20.4595 7.25438L20.4032 7.25544L20.4053 7.2565ZM18.8116 14.6908C18.3888 14.6907 17.9834 14.5227 17.6845 14.2237C17.3857 13.9247 17.2178 13.5193 17.218 13.0967C17.2181 12.674 17.3862 12.2688 17.6853 11.97C17.9844 11.6712 18.3899 11.5035 18.8127 11.5036C19.0221 11.5037 19.2293 11.545 19.4227 11.6251C19.6161 11.7053 19.7918 11.8227 19.9398 11.9708C20.0878 12.1188 20.2052 12.2945 20.2852 12.4879C20.3653 12.6812 20.4064 12.8885 20.4064 13.0978C20.4063 13.307 20.365 13.5142 20.2848 13.7076C20.2046 13.9009 20.0871 14.0765 19.939 14.2244C19.791 14.3724 19.6152 14.4897 19.4217 14.5697C19.2283 14.6497 19.021 14.6909 18.8116 14.6908Z" fill="white"/>
<circle cx="6.22804" cy="18.7705" r="4.96779" fill="white" stroke="#3878EC" stroke-width="1.5"/>
<path d="M6.22803 16.6616V20.8794" stroke="#3878EC" stroke-linecap="round"/>
<path d="M4.11914 18.7705L8.33693 18.7705" stroke="#3878EC" stroke-linecap="round"/>
</svg>
