<svg viewBox="0 0 80 80" xmlns="http://www.w3.org/2000/svg"><defs><linearGradient x1="74.88625%" y1="74.0108333%" x2="9.66316667%" y2="11.082%" id="a"><stop stop-color="#17153F" offset="4.4%"/><stop stop-color="#E72850" offset="89.5%"/></linearGradient></defs><g fill-rule="nonzero" fill="none"><path d="M80 40c0 22.0914-17.9086 40-40 40S0 62.0914 0 40 17.9086 0 40 0s40 17.9086 40 40Z" fill="#142477"/><path d="M40 8c17.6746667 0 32 14.3253333 32 32S57.6746667 72 40 72 8 57.6746667 8 40 22.3253333 8 40 8Z" fill="url(#a)"/><g fill="#FFF"><path d="M39.9999997 60.7600003c-11.4666667 0-20.7626667-9.296-20.7626667-20.7626666 0-11.4666667 9.296-20.7626667 20.7626667-20.7626667 11.4666666 0 20.7626666 9.296 20.7626666 20.7626667-.016 11.4613333-9.3013333 20.752-20.7626666 20.7626666m0-40.5973333c-10.9546667 0-19.84000003 8.88-19.84000003 19.84 0 10.96 8.88 19.84 19.84000003 19.84 10.96 0 19.84-8.88 19.84-19.84-.0106667-10.95466667-8.8853334-19.82933333-19.84-19.84"/><path d="M41.701333 58.7333337c-10.304 0-18.656-8.352-18.656-18.656 0-10.304 8.352-18.65600003 18.656-18.65600003 10.304 0 18.656 8.35200003 18.656 18.65600003-.016 10.2986666-8.3626667 18.64-18.656 18.656m0-36.51200003c-9.8613333 0-17.856 7.99466663-17.856 17.85600003 0 9.8613333 7.9946667 17.856 17.856 17.856 9.8613333 0 17.856-7.9946667 17.856-17.856-.0106667-9.856-8-17.84533337-17.856-17.85600003"/><path d="M43.397333 56.7013337c-9.136 0-16.54933333-7.408-16.54933333-16.544S34.2559997 23.60800033 43.3919997 23.60800033 59.9466663 31.0160003 59.9466663 40.1520003c-.0106666 9.136-7.4133333 16.5386667-16.5493333 16.5493334m0-32.42133337c-8.7626667 0-15.872 7.10399997-15.872 15.87199997 0 8.768 7.104 15.872 15.872 15.872s15.872-7.104 15.872-15.872c-.0106667-8.7573333-7.1093333-15.8613333-15.872-15.87199997"/><path d="M45.0986663 54.6693337c-7.9733333 0-14.4426666-6.464-14.4426666-14.4373334 0-7.9733333 6.464-14.44266663 14.4373333-14.44266663S59.5359997 32.2533337 59.5359997 40.226667c-.0053334 7.9733333-6.464 14.432-14.4373334 14.4426667m0-28.32533337c-7.6693333 0-13.888 6.21866667-13.888 13.88799997 0 7.6693334 6.2186667 13.888 13.888 13.888 7.6693334 0 13.888-6.2186666 13.888-13.888-.0106666-7.6693333-6.224-13.88266663-13.888-13.88799997"/><path d="M46.7999997 52.6373337c-6.8106667 0-12.3306667-5.52-12.3306667-12.3306667 0-6.8106667 5.52-12.33066667 12.3306667-12.33066667 6.8106666 0 12.3306666 5.51999997 12.3306666 12.33066667-.0106666 6.8053333-5.5253333 12.3253333-12.3306666 12.3306667m0-24.2346667c-6.576 0-11.904 5.328-11.904 11.904s5.328 11.904 11.904 11.904 11.904-5.328 11.904-11.904c-.0106667-6.5706667-5.3333334-11.89333333-11.904-11.904"/><path d="M48.4959997 50.6053337c-5.648 0-10.224-4.576-10.224-10.224 0-5.648 4.576-10.224 10.224-10.224 5.648 0 10.224 4.576 10.224 10.224-.0053334 5.648-4.576 10.2186666-10.224 10.224m0-20.1386667c-5.4773334 0-9.92 4.4426667-9.92 9.92s4.4426666 9.92 9.92 9.92c5.4773333 0 9.92-4.4426667 9.92-9.92-.0053334-5.4773333-4.4426667-9.9146667-9.92-9.92"/></g></g></svg>