<svg fill="none" height="80" viewBox="0 0 80 80" width="80" xmlns="http://www.w3.org/2000/svg" xmlns:xlink="http://www.w3.org/1999/xlink"><linearGradient id="a"><stop offset="0" stop-color="#0b46f9"/><stop offset="1" stop-color="#bbfbe0"/></linearGradient><linearGradient id="b" gradientUnits="userSpaceOnUse" x1="54.7349" x2="43.2382" xlink:href="#a" y1="63.296" y2="14.9268"/><linearGradient id="c" gradientUnits="userSpaceOnUse" x1="54.7342" x2="43.2375" xlink:href="#a" y1="63.296" y2="14.9268"/><linearGradient id="d" gradientUnits="userSpaceOnUse" x1="54.7344" x2="43.2377" xlink:href="#a" y1="63.296" y2="14.9268"/><linearGradient id="e" gradientUnits="userSpaceOnUse" x1="22.1493" x2="42.4745" y1="28.736" y2="44.1932"><stop offset=".12" stop-color="#8952ff" stop-opacity=".87"/><stop offset="1" stop-color="#dabdff" stop-opacity="0"/></linearGradient><mask id="f" height="42" maskUnits="userSpaceOnUse" width="42" x="19" y="19"><path d="m60.4798 30.9568-17.7615-11.4368v6.3949l11.3943 7.2704-1.3412 4.1651h-10.0531v5.2992h10.0531l1.3412 4.1651-11.3943 7.2704v6.3949l17.7615-11.3997-2.904-9.0624 2.904-9.0624z" fill="url(#d)"/><path d="m27.2649 42.6496h10.0166v-5.2992h-10.0544l-1.3034-4.1651 11.3578-7.2704v-6.3949l-17.7615 11.4368 2.904 9.0624-2.904 9.0611 17.7993 11.3997v-6.3936l-11.3943-7.2717z" fill="url(#c)"/></mask><path d="m80 40c0 22.0914-17.9086 40-40 40s-40-17.9086-40-40 17.9086-40 40-40 40 17.9086 40 40z" fill="#142477"/><path d="m40 72c17.6731 0 32-14.3269 32-32s-14.3269-32-32-32-32 14.3269-32 32 14.3269 32 32 32z" fill="#000"/><path d="m60.4803 30.9568-17.7615-11.4368v6.3949l11.3943 7.2704-1.3412 4.1651h-10.0531v5.2992h10.0531l1.3412 4.1651-11.3943 7.2704v6.3949l17.7615-11.3997-2.904-9.0624 2.904-9.0624z" fill="url(#b)"/><path d="m27.2649 42.6496h10.0166v-5.2992h-10.0544l-1.3034-4.1651 11.3578-7.2704v-6.3949l-17.7615 11.4368 2.904 9.0624-2.904 9.0611 17.7993 11.3997v-6.3936l-11.3943-7.2717z" fill="url(#c)"/><g mask="url(#f)"><path d="m60.2088 19.52h-40.6663v40.96h40.6663z" fill="url(#e)"/></g></svg>