<svg fill="none" height="80" viewBox="0 0 80 80" width="80" xmlns="http://www.w3.org/2000/svg"><path d="m80 40c0 22.0914-17.9086 40-40 40s-40-17.9086-40-40 17.9086-40 40-40 40 17.9086 40 40z" fill="#142477"/><path d="m8 40c0-17.6731 14.3269-32 32-32s32 14.3269 32 32-14.3269 32-32 32-32-14.3269-32-32z" fill="#fff"/><g fill="#1dc530"><path d="m45.5436 48.2782c0 3.0618-2.4818 5.5436-5.5436 5.5436-3.0612 0-5.543-2.4818-5.543-5.5436 0-3.0613 2.4818-5.5435 5.543-5.5435 3.0618 0 5.5436 2.4822 5.5436 5.5435z"/><path clip-rule="evenodd" d="m40 72c17.6731 0 32-14.3269 32-32s-14.3269-32-32-32-32 14.3269-32 32 14.3269 32 32 32zm2.8913-50.4307h-8.9024l-1.5618 4.7223h4.9443v9.9475h5.5199zm7.2617 26.7089c0 5.6071-4.5459 10.1525-10.153 10.1525s-10.1523-4.5454-10.1523-10.1525 4.5452-10.1524 10.1523-10.1524 10.153 4.5453 10.153 10.1524z" fill-rule="evenodd"/></g></svg>