<?xml version="1.0" encoding="UTF-8"?>
<svg width="80px" height="80px" viewBox="0 0 80 80" version="1.1" xmlns="http://www.w3.org/2000/svg" xmlns:xlink="http://www.w3.org/1999/xlink">
    <title>hydradx</title>
    <g id="Page-1" stroke="none" stroke-width="1" fill="none" fill-rule="evenodd">
        <g id="hydradx" fill-rule="nonzero">
            <circle id="Oval" fill="#142477" cx="40" cy="40" r="40"></circle>
            <circle id="Oval" fill="#FF8C00" cx="40" cy="40" r="32"></circle>
            <path d="M39.5,17 C29.8703704,17 22,24.8103869 22,34.4693862 C22,36.4104291 22.3240741,38.3052567 22.9259259,40.153869 C23.3425926,41.4016823 24.7314815,42.0949119 26.0277778,41.6789741 C27.2777778,41.2630363 27.9722222,39.8765771 27.5555556,38.5825485 C27.0462963,37.149874 26.8148148,35.6247689 26.8611111,34.0996637 C27.0462963,27.5833054 32.3240741,22.2223297 38.8518519,21.8988226 C46.1203704,21.5291001 52.1388889,27.3060135 52.1388889,34.4693862 C52.1388889,41.1706057 46.8611111,46.6702273 40.2407407,47.0399498 C40.2407407,47.0399498 37.787037,47.1785957 36.5833333,47.3634569 C35.9814815,47.4558875 35.5185185,47.5483181 35.1944444,47.5945334 C35.0555556,47.6407488 34.9166667,47.5021028 34.962963,47.3634569 L35.3796296,45.3299834 L37.6481481,34.8853239 C37.9259259,33.5912953 37.0925926,32.2972667 35.7962963,32.0199749 C34.5,31.742683 33.2037037,32.5745586 32.9259259,33.8685872 C32.9259259,33.8685872 27.462963,59.2870062 27.4166667,59.564298 C27.1388889,60.8583266 27.9722222,62.1523553 29.2685185,62.4296471 C30.5648148,62.7069389 31.8611111,61.8750634 32.1388889,60.5810348 C32.1851852,60.303743 32.9259259,56.9300255 32.9259259,56.9300255 C33.4814815,54.3419683 35.6111111,52.4471407 38.1111111,52.1236336 C38.6666667,52.0312029 40.8425926,51.892557 40.8425926,51.892557 C49.8703704,51.1993274 57,43.6662323 57,34.4693862 C57,24.8103869 49.1296296,17 39.5,17 Z M40.75,57.2073174 C39.1759259,56.8838102 37.6018519,57.8543317 37.2777778,59.4718674 C36.9537037,61.0431879 37.9259259,62.6145083 39.5462963,62.9380155 C41.1203704,63.2615226 42.6944444,62.2910012 43.0185185,60.6734654 C43.3425926,59.0559297 42.3703704,57.5308245 40.75,57.2073174 Z" id="Shape" fill="#FFFFFF"></path>
        </g>
    </g>
</svg>