<?xml version="1.0" encoding="UTF-8"?>
<svg width="80px" height="80px" viewBox="0 0 80 80" version="1.1" xmlns="http://www.w3.org/2000/svg" xmlns:xlink="http://www.w3.org/1999/xlink">
    <title>subwallet-js</title>
    <g id="Page-1" stroke="none" stroke-width="1" fill="none" fill-rule="evenodd">
        <g id="subwallet-js">
            <circle id="Oval" fill="#142477" fill-rule="nonzero" cx="40" cy="40" r="40"></circle>
            <rect id="Rectangle" fill="#FFFFFF" fill-rule="nonzero" x="8" y="8" width="64" height="64" rx="32"></rect>
            <path d="M39.9634536,18 C41.8629361,18 43.4025514,19.5390247 43.4025514,21.4375183 L43.4025514,21.4375183 L43.4025514,34.1985817 C43.4025514,34.6309917 43.7006065,35.006385 44.1131149,35.1366983 C44.764801,35.3426183 45.465093,34.87884 45.465093,34.195575 L45.465093,34.195575 L45.465093,26.25 C45.465093,24.35151 47.0048917,22.8124817 48.9041908,22.8124817 C50.8036733,22.8124817 52.3432886,24.35151 52.3432886,26.25 L52.3432886,26.25 L52.3432886,41.94865 C52.3432886,42.1462833 52.3882261,42.3387833 52.470581,42.5182667 C52.8889587,43.4287 54.1207977,43.75045 54.8297104,43.0418667 L54.8297104,43.0418667 L56.1290474,41.7431333 C57.472038,40.4005833 59.649583,40.4005833 60.992757,41.7431333 C62.3357477,43.0855 62.3357477,45.2620333 60.992757,46.6044 L60.992757,46.6044 L50.4865426,57.1057333 C47.9630702,60.09865 44.1850149,62 39.96272,62 C35.5572082,62 31.6353895,59.9299833 29.1176214,56.7101 L29.1176214,56.7101 L19.0072939,46.6044 C17.6642372,45.2620333 17.6642335,43.0855 19.0072939,41.7431333 C20.3503615,40.4005833 22.5278882,40.4005833 23.8709338,41.7431333 L23.8709338,41.7431333 L25.1503516,43.0218833 C25.8438021,43.7150667 27.0476514,43.4032167 27.4572983,42.5125833 C27.5382593,42.3365833 27.5822614,42.14775 27.5822614,41.95415 L27.5822614,41.95415 L27.5822614,26.25 C27.5822614,24.35151 29.1220051,22.8124817 31.0213775,22.8124817 C32.92075,22.8124817 34.4604937,24.35151 34.4604937,26.25 L34.4604937,26.25 L34.4604937,34.1946583 C34.4604937,34.8783083 35.1611342,35.3423617 35.8133338,35.1363867 C36.2261356,35.0060183 36.5243558,34.6303683 36.5243558,34.1976467 L36.5243558,34.1976467 L36.5243558,21.4375183 C36.5243558,19.5390247 38.0641546,18 39.9634536,18 Z M39.9619863,42.75 C33.8839725,42.75 28.9567817,49.6251833 28.9567817,49.6251833 C28.9567817,49.6251833 33.8839725,56.5001833 39.9619863,56.5001833 C46.0399267,56.5001833 50.9670992,49.6251833 50.9670992,49.6251833 C50.9670992,49.6251833 46.0399267,42.75 39.9619863,42.75 Z M39.0000178,46 C41.2090746,46 43,47.7909333 43,50 C43,52.2090667 41.2090746,54 39.0000178,54 C36.7907832,54 35,52.2090667 35,50 C35,47.7909333 36.7907832,46 39.0000178,46 Z" id="Combined-Shape" fill="#000000"></path>
        </g>
    </g>
</svg>