<svg width="80" height="80" viewBox="0 0 80 80" fill="none" xmlns="http://www.w3.org/2000/svg">
<path d="M80 40C80 62.0914 62.0914 80 40 80C17.9086 80 0 62.0914 0 40C0 17.9086 17.9086 0 40 0C62.0914 0 80 17.9086 80 40Z" fill="#142477"/>
<circle cx="40" cy="40" r="32" fill="url(#paint0_linear_5663_132133)"/>
<path d="M25.236 30.9849C33.39 23.005 46.61 23.005 54.764 30.9849L55.7453 31.9453C56.153 32.3443 56.153 32.9912 55.7453 33.3902L52.3884 36.6755C52.1845 36.875 51.8541 36.875 51.6501 36.6755L50.2997 35.3539C44.6114 29.7869 35.3886 29.7869 29.7003 35.3539L28.2541 36.7692C28.0503 36.9687 27.7197 36.9687 27.5159 36.7692L24.1589 33.4839C23.7513 33.0849 23.7513 32.438 24.1589 32.039L25.236 30.9849ZM61.7065 37.7793L64.6942 40.7032C65.1019 41.1022 65.1019 41.7491 64.6942 42.1481L51.2225 55.3326C50.8148 55.7315 50.1538 55.7315 49.746 55.3326L40.1846 45.9752C40.0827 45.8754 39.9175 45.8754 39.8156 45.9752L30.2543 55.3326C29.8466 55.7315 29.1856 55.7315 28.778 55.3326L15.3058 42.148C14.8981 41.7489 14.8981 41.1021 15.3058 40.703L18.2935 37.7792C18.7012 37.3801 19.3622 37.3801 19.7699 37.7792L29.3315 47.1366C29.4334 47.2364 29.5986 47.2364 29.7005 47.1366L39.2617 37.7792C39.6693 37.3801 40.3303 37.3801 40.738 37.7791L50.2995 47.1366C50.4016 47.2364 50.5667 47.2364 50.6687 47.1366L60.2301 37.7793C60.6377 37.3803 61.2988 37.3803 61.7065 37.7793Z" fill="white"/>
<defs>
<linearGradient id="paint0_linear_5663_132133" x1="8" y1="8" x2="72" y2="72" gradientUnits="userSpaceOnUse">
<stop stop-color="#3396FF"/>
<stop offset="1" stop-color="#035FC0"/>
</linearGradient>
</defs>
</svg>
