<svg width="24" height="24" viewBox="0 0 24 24" fill="none" xmlns="http://www.w3.org/2000/svg">
<g id="unselected-token-placeholder">
<circle id="bg" cx="12" cy="12" r="12" fill="#1A1A4E"/>
<path id="dash" fill-rule="evenodd" clip-rule="evenodd" d="M13.7862 20.9783C13.2085 21.0926 12.6113 21.1525 12 21.1525C11.3887 21.1525 10.7915 21.0926 10.2138 20.9783L10.6019 19.0164C11.0525 19.1055 11.5198 19.1525 12 19.1525C12.4802 19.1525 12.9475 19.1055 13.3981 19.0164L13.7862 20.9783ZM6.9147 19.6109L8.02734 17.949C7.24649 17.4262 6.57377 16.7535 6.051 15.9727L4.38906 17.0853C5.05727 18.0834 5.91661 18.9427 6.9147 19.6109ZM3.02167 13.7862L4.98364 13.3981C4.89451 12.9475 4.84746 12.4802 4.84746 12C4.84746 11.5198 4.89451 11.0525 4.98364 10.6019L3.02167 10.2138C2.90738 10.7915 2.84746 11.3887 2.84746 12C2.84746 12.6113 2.90738 13.2085 3.02167 13.7862ZM4.38906 6.9147L6.051 8.02734C6.57377 7.24649 7.24649 6.57377 8.02734 6.051L6.9147 4.38906C5.91661 5.05727 5.05727 5.91661 4.38906 6.9147ZM10.2138 3.02167C10.7915 2.90738 11.3887 2.84746 12 2.84746C12.6113 2.84746 13.2085 2.90738 13.7862 3.02167L13.3981 4.98364C12.9475 4.89451 12.4802 4.84746 12 4.84746C11.5198 4.84746 11.0525 4.89451 10.6019 4.98364L10.2138 3.02167ZM17.0853 4.38906L15.9727 6.051C16.7535 6.57377 17.4262 7.24649 17.949 8.02734L19.6109 6.9147C18.9427 5.91661 18.0834 5.05727 17.0853 4.38906ZM20.9783 10.2138L19.0164 10.6019C19.1055 11.0525 19.1525 11.5198 19.1525 12C19.1525 12.4802 19.1055 12.9475 19.0164 13.3981L20.9783 13.7862C21.0926 13.2085 21.1525 12.6113 21.1525 12C21.1525 11.3887 21.0926 10.7915 20.9783 10.2138ZM19.6109 17.0853L17.949 15.9727C17.4262 16.7535 16.7535 17.4262 15.9727 17.949L17.0853 19.6109C18.0834 18.9427 18.9427 18.0834 19.6109 17.0853Z" fill="#0085FF"/>
</g>
</svg>
