<svg width="48" height="49" viewBox="0 0 48 49" fill="none" xmlns="http://www.w3.org/2000/svg">
<path fill-rule="evenodd" clip-rule="evenodd" d="M0 41.6555V44.9889C0 47.198 1.79086 48.9889 4 48.9889H7.33333V46.9889H4C2.89543 46.9889 2 46.0934 2 44.9889V41.6555H0ZM0 34.9889H2V28.3222H0V34.9889ZM0 21.6555H2V14.9889H0V21.6555ZM0 8.3222H2V4.98886C2 3.8843 2.89543 2.98886 4 2.98886H7.33333V0.988865H4C1.79086 0.988865 0 2.77973 0 4.98886V8.3222ZM14 0.988865V2.98886H20.6667V0.988865H14ZM27.3333 0.988865V2.98886H34V0.988865H27.3333ZM40.6667 0.988865V2.98886H44C45.1046 2.98886 46 3.88429 46 4.98886V8.3222H48V4.98886C48 2.77973 46.2091 0.988865 44 0.988865H40.6667ZM48 14.9889H46V21.6555H48V14.9889ZM48 28.3222H46V34.9889H48V28.3222ZM48 41.6555H46V44.9889C46 46.0934 45.1046 46.9889 44 46.9889H40.6667V48.9889H44C46.2091 48.9889 48 47.198 48 44.9889V41.6555ZM34 48.9889V46.9889H27.3333V48.9889H34ZM20.6667 48.9889V46.9889H14V48.9889H20.6667Z" fill="#0085FF"/>
</svg>
